<svg width="262" height="360" viewBox="0 0 262 360" fill="none" xmlns="http://www.w3.org/2000/svg">
<path d="M61.2258 133.335C55.1293 131.118 49.7498 126.824 46.2523 120.766C38.3569 107.091 43.0424 89.6044 56.7176 81.709L186.819 6.5951C194.436 2.19717 203.236 1.7028 210.902 4.49132C216.999 6.70889 222.378 11.0026 225.876 17.0604C233.771 30.7356 229.086 48.2221 215.41 56.1175L85.3093 131.231C77.6919 135.629 68.8919 136.124 61.2258 133.335Z" fill="#D9D9D9"/>
<path d="M18.8088 260.787C12.7123 258.57 7.3328 254.276 3.83534 248.218C-4.06005 234.543 0.625421 217.056 14.3006 209.161L186.37 109.817C193.987 105.419 202.787 104.925 210.453 107.713C216.55 109.931 221.929 114.224 225.427 120.282C233.322 133.957 228.637 151.444 214.962 159.339L42.8924 258.683C35.2749 263.081 26.475 263.576 18.8088 260.787Z" fill="#D9D9D9"/>
<path d="M58.3936 339.779C52.297 337.561 46.9176 333.267 43.4201 327.209C35.5247 313.534 40.2102 296.048 53.8854 288.152L100.05 261.499C107.668 257.101 116.468 256.607 124.134 259.395C130.23 261.613 135.61 265.907 139.107 271.964C147.003 285.64 142.317 303.126 128.642 311.021L82.4771 337.675C74.8597 342.073 66.0597 342.567 58.3936 339.779Z" fill="#D9D9D9"/>
<path d="M236.12 167.039C249.795 159.144 254.48 141.658 246.585 127.982L225.426 120.281C233.321 133.956 228.636 151.443 214.961 159.338L236.12 167.039Z" fill="#D9D9D9"/>
<path d="M246.585 127.983C243.088 121.925 237.709 117.632 231.612 115.414L210.464 107.717C216.556 109.936 221.931 114.228 225.427 120.282L246.585 127.983Z" fill="#D9D9D9"/>
<path d="M149.8 318.722C163.475 310.827 168.16 293.34 160.265 279.665L139.106 271.964C147.001 285.639 142.316 303.126 128.641 311.021L149.8 318.722Z" fill="#D9D9D9"/>
<path d="M231.612 115.414C223.945 112.626 215.145 113.12 207.528 117.518L186.369 109.817C193.987 105.419 202.787 104.924 210.453 107.713L231.612 115.414Z" fill="url(#paint0_linear_1953_1269)"/>
<path d="M236.569 63.8188C250.244 55.9234 254.93 38.437 247.034 24.7618L225.875 17.0605C233.771 30.7358 229.085 48.2222 215.41 56.1176L236.569 63.8188Z" fill="#D9D9D9"/>
<path d="M160.265 279.665C156.768 273.607 151.388 269.313 145.292 267.096L124.144 259.398C130.236 261.617 135.611 265.909 139.106 271.964L160.265 279.665Z" fill="#D9D9D9"/>
<path d="M103.635 345.376L149.8 318.723L128.641 311.021L82.4766 337.675L103.635 345.376Z" fill="#D9D9D9"/>
<path d="M247.035 24.7615C243.537 18.7037 238.158 14.41 232.061 12.1924L210.913 4.49515C217.005 6.71386 222.38 11.0061 225.876 17.0603L247.035 24.7615Z" fill="#D9D9D9"/>
<path d="M145.293 267.096C137.627 264.307 128.827 264.802 121.21 269.2L100.051 261.498C107.668 257.1 116.468 256.606 124.134 259.395L145.293 267.096Z" fill="url(#paint1_linear_1953_1269)"/>
<path d="M64.0515 266.384L236.121 167.04L214.962 159.339L42.8926 258.683L64.0515 266.384Z" fill="#D9D9D9"/>
<path d="M232.059 12.1925C224.393 9.40401 215.593 9.89838 207.975 14.2963L186.816 6.5951C194.434 2.19717 203.234 1.7028 210.9 4.49132L232.059 12.1925Z" fill="url(#paint2_linear_1953_1269)"/>
<path d="M79.5496 347.48C87.2158 350.268 96.0158 349.774 103.633 345.376L82.4743 337.675C74.8569 342.073 66.0569 342.567 58.3907 339.779L79.5496 347.48Z" fill="#D9D9D9"/>
<path d="M106.467 138.932L236.569 63.8184L215.41 56.1172L85.3086 131.231L106.467 138.932Z" fill="#D9D9D9"/>
<path d="M121.209 269.2L75.0438 295.854L53.8849 288.152L100.05 261.499L121.209 269.2Z" fill="#E4E4E4"/>
<path d="M64.5788 334.91C68.0742 340.964 73.4494 345.257 79.5415 347.475L58.3934 339.778C52.2968 337.561 46.9174 333.267 43.4199 327.209L64.5788 334.91Z" fill="#D9D9D9"/>
<path d="M64.5788 334.91C68.0742 340.964 73.4494 345.257 79.5415 347.475L58.3934 339.778C52.2968 337.561 46.9174 333.267 43.4199 327.209L64.5788 334.91Z" fill="url(#paint3_linear_1953_1269)"/>
<path d="M24.9929 255.919C28.4883 261.973 33.8635 266.265 39.9555 268.484L18.8074 260.787C12.7109 258.569 7.33144 254.276 3.83398 248.218L24.9929 255.919Z" fill="url(#paint4_linear_1953_1269)"/>
<path d="M24.9929 255.919C28.4883 261.973 33.8635 266.265 39.9555 268.484L18.8074 260.787C12.7109 258.569 7.33144 254.276 3.83398 248.218L24.9929 255.919Z" fill="#D9D9D9"/>
<path d="M24.9929 255.919C28.4883 261.973 33.8635 266.265 39.9555 268.484L18.8074 260.787C12.7109 258.569 7.33144 254.276 3.83398 248.218L24.9929 255.919Z" fill="url(#paint5_linear_1953_1269)"/>
<path d="M64.5802 334.911C56.6848 321.235 61.3702 303.749 75.0455 295.854L53.8866 288.152C40.2114 296.048 35.5259 313.534 43.4213 327.209L64.5802 334.911Z" fill="url(#paint6_linear_1953_1269)"/>
<path d="M207.527 117.518L35.4577 216.862L14.2988 209.161L186.368 109.816L207.527 117.518Z" fill="#E4E4E4"/>
<path d="M207.977 14.2959L77.8757 89.4098L56.7168 81.7086L186.818 6.59473L207.977 14.2959Z" fill="#E4E4E4"/>
<path d="M39.9655 268.488C47.6317 271.276 56.4317 270.782 64.0491 266.384L42.8902 258.683C35.2728 263.081 26.4728 263.575 18.8066 260.786L39.9655 268.488Z" fill="#D9D9D9"/>
<path d="M82.3835 141.035C90.0497 143.824 98.8496 143.33 106.467 138.932L85.3081 131.23C77.6907 135.628 68.8908 136.123 61.2246 133.334L82.3835 141.035Z" fill="#D9D9D9"/>
<path d="M24.9929 255.919C28.4883 261.973 33.8635 266.265 39.9555 268.484L18.8074 260.787C12.7109 258.569 7.33144 254.276 3.83398 248.218L24.9929 255.919Z" fill="#D9D9D9"/>
<path d="M24.9929 255.919C28.4883 261.973 33.8635 266.265 39.9555 268.484L18.8074 260.787C12.7109 258.569 7.33144 254.276 3.83398 248.218L24.9929 255.919Z" fill="url(#paint7_linear_1953_1269)"/>
<path d="M67.4108 128.467C70.9062 134.521 76.2814 138.813 82.3735 141.032L61.2254 133.335C55.1289 131.117 49.7494 126.823 46.252 120.766L67.4108 128.467Z" fill="url(#paint8_linear_1953_1269)"/>
<path d="M24.9942 255.918C17.0988 242.243 21.7843 224.757 35.4595 216.861L14.3006 209.16C0.625421 217.056 -4.06005 234.542 3.83534 248.217L24.9942 255.918Z" fill="url(#paint9_linear_1953_1269)"/>
<path d="M67.4102 128.467C59.5149 114.792 64.2003 97.3056 77.8755 89.4102L56.7167 81.709C43.0414 89.6044 38.356 107.091 46.2514 120.766L67.4102 128.467Z" fill="url(#paint10_linear_1953_1269)"/>
<rect x="53.1152" y="103.706" width="207.411" height="57.1835" rx="28.5917" transform="rotate(-30 53.1152 103.706)" fill="#F3F4F7"/>
<rect x="10.6992" y="231.157" width="255.872" height="57.1835" rx="28.5917" transform="rotate(-30 10.6992 231.157)" fill="#F3F4F7"/>
<rect x="50.2852" y="310.149" width="110.49" height="57.1835" rx="28.5917" transform="rotate(-30 50.2852 310.149)" fill="#F3F4F7"/>
<defs>
<linearGradient id="paint0_linear_1953_1269" x1="207.27" y1="114.481" x2="215.484" y2="81.9835" gradientUnits="userSpaceOnUse">
<stop offset='0' stop-color="#E4E4E4"/>
<stop offset="0.33176" stop-color="white"/>
</linearGradient>
<linearGradient id="paint1_linear_1953_1269" x1="120.951" y1="266.162" x2="129.166" y2="233.665" gradientUnits="userSpaceOnUse">
<stop offset='0' stop-color="#E4E4E4"/>
<stop offset="0.33176" stop-color="white"/>
</linearGradient>
<linearGradient id="paint2_linear_1953_1269" x1="207.717" y1="11.2589" x2="212.22" y2="-10.1321" gradientUnits="userSpaceOnUse">
<stop offset='0' stop-color="#E4E4E4"/>
<stop offset="0.211303" stop-color="white"/>
<stop offset="0.839974" stop-color="#EEEEEF"/>
</linearGradient>
<linearGradient id="paint3_linear_1953_1269" x1="56.8376" y1="333.663" x2="72.0365" y2="352.24" gradientUnits="userSpaceOnUse">
<stop offset='0' stop-color="#E4E4E4"/>
<stop offset="1" stop-color="white"/>
</linearGradient>
<linearGradient id="paint4_linear_1953_1269" x1="17.2517" y1="254.672" x2="32.4506" y2="273.249" gradientUnits="userSpaceOnUse">
<stop offset='0' stop-color="#E4E4E4"/>
<stop offset="1" stop-color="white"/>
</linearGradient>
<linearGradient id="paint5_linear_1953_1269" x1="17.2517" y1="254.672" x2="32.4506" y2="273.249" gradientUnits="userSpaceOnUse">
<stop offset='0' stop-color="#E4E4E4"/>
<stop offset="1" stop-color="white"/>
</linearGradient>
<linearGradient id="paint6_linear_1953_1269" x1="65.2824" y1="288.63" x2="59.6532" y2="337.604" gradientUnits="userSpaceOnUse">
<stop offset="0.119056" stop-color="#E4E4E4" stop-opacity="0.99"/>
<stop offset="0.473957" stop-color="#F7F7F7"/>
<stop offset="0.75458" stop-color="#E4E4E4"/>
</linearGradient>
<linearGradient id="paint7_linear_1953_1269" x1="17.2517" y1="254.672" x2="32.4506" y2="273.249" gradientUnits="userSpaceOnUse">
<stop offset='0' stop-color="#E4E4E4"/>
<stop offset="1" stop-color="white"/>
</linearGradient>
<linearGradient id="paint8_linear_1953_1269" x1="59.6697" y1="127.22" x2="74.8685" y2="145.796" gradientUnits="userSpaceOnUse">
<stop offset='0' stop-color="#E4E4E4"/>
<stop offset="1" stop-color="white"/>
</linearGradient>
<linearGradient id="paint9_linear_1953_1269" x1="25.6964" y1="209.638" x2="20.0672" y2="258.612" gradientUnits="userSpaceOnUse">
<stop offset="0.119056" stop-color="#E4E4E4" stop-opacity="0.99"/>
<stop offset="0.473957" stop-color="#F7F7F7"/>
<stop offset="0.75458" stop-color="#E4E4E4"/>
</linearGradient>
<linearGradient id="paint10_linear_1953_1269" x1="68.1125" y1="82.1868" x2="62.4833" y2="131.161" gradientUnits="userSpaceOnUse">
<stop offset="0.119056" stop-color="#E4E4E4" stop-opacity="0.99"/>
<stop offset="0.473957" stop-color="#F7F7F7"/>
<stop offset="0.75458" stop-color="#E4E4E4"/>
</linearGradient>
</defs>
</svg>
