<svg width="83" height="48" viewBox="0 0 83 48" fill="none" xmlns="http://www.w3.org/2000/svg">
<path d="M41 15.333C32.028 15.333 25 19.1397 25 23.9997C25 28.8597 32.028 32.6663 41 32.6663C49.972 32.6663 57 28.8597 57 23.9997C57 19.1397 49.972 15.333 41 15.333ZM39.3387 17.9997H41.0853L40.5307 20.6663H42.0907C43.08 20.6663 43.744 20.805 44.1227 21.1503C44.492 21.4917 44.604 22.0517 44.456 22.8143L43.7627 25.9997H41.9867L42.6253 23.0543C42.7027 22.6503 42.672 22.369 42.536 22.221C42.4013 22.073 42.104 21.9997 41.6587 21.9997H40.26L39.416 25.9997H37.6667L39.3387 17.9997ZM31.6667 20.6663H35.2213C36.916 20.6663 37.9427 21.8023 37.5413 23.497C37.0747 25.4663 35.8267 25.9997 33.528 25.9997H32.4293L32.0813 27.9997H30.3147L31.6667 20.6663ZM45.6667 20.6663H49.2213C50.916 20.6663 51.9427 21.8023 51.5413 23.497C51.0747 25.4663 49.8253 25.9997 47.528 25.9997H46.4293L46.0813 27.9997H44.3147L45.6667 20.6663ZM33.18 21.9997L32.6773 24.6663H33.8173C34.804 24.6663 35.7213 24.5543 35.8747 23.0823C35.932 22.513 35.6947 21.9997 34.5547 21.9997H33.18ZM47.18 21.9997L46.6773 24.6663H47.8173C48.804 24.6663 49.7213 24.5543 49.8747 23.0823C49.932 22.513 49.696 21.9997 48.5547 21.9997H47.18Z" fill="black"/>
</svg>
