<svg width="83" height="48" viewBox="0 0 83 48" fill="none" xmlns="http://www.w3.org/2000/svg">
<path d="M41 8C32.184 8 25 15.184 25 24C25 32.816 32.184 40 41 40C49.816 40 57 32.816 57 24C57 15.184 49.816 8 41 8ZM26.616 24C26.616 21.92 27.064 19.936 27.864 18.144L34.728 36.944C29.928 34.608 26.616 29.696 26.616 24ZM41 38.384C39.592 38.384 38.232 38.176 36.936 37.792L41.256 25.248L45.672 37.36C45.704 37.424 45.736 37.504 45.768 37.552C44.28 38.096 42.68 38.384 41 38.384ZM42.984 17.248C43.848 17.2 44.632 17.104 44.632 17.104C45.4 17.008 45.32 15.872 44.536 15.92C44.536 15.92 42.2 16.096 40.696 16.096C39.288 16.096 36.904 15.92 36.904 15.92C36.136 15.888 36.04 17.072 36.824 17.12C36.824 17.12 37.56 17.216 38.328 17.264L40.568 23.408L37.416 32.848L32.184 17.248C33.048 17.216 33.832 17.12 33.832 17.12C34.6 17.024 34.52 15.888 33.736 15.936C33.736 15.936 31.4 16.112 29.896 16.112C29.624 16.112 29.304 16.112 28.968 16.096C31.56 12.192 35.976 9.616 41 9.616C44.744 9.616 48.152 11.04 50.712 13.392C50.648 13.392 50.584 13.376 50.52 13.376C49.112 13.376 48.104 14.608 48.104 15.936C48.104 17.12 48.792 18.128 49.512 19.312C50.056 20.272 50.696 21.504 50.696 23.28C50.696 24.512 50.216 25.936 49.608 27.936L48.168 32.736L42.984 17.248ZM53.624 17.104C55.4211 20.393 55.8632 24.2537 54.8561 27.8638C53.849 31.474 51.4722 34.5483 48.232 36.432L52.632 23.728C53.448 21.68 53.72 20.032 53.72 18.576C53.72 18.048 53.688 17.552 53.624 17.104Z" fill="#212B36"/>
</svg>
