<svg width="186" height="60" viewBox="0 0 186 60" fill="none" xmlns="http://www.w3.org/2000/svg">
<path fill-rule="evenodd" clip-rule="evenodd" d="M22.9733 27.7147C21.5295 27.1427 20.4798 26.3562 19.8241 25.3552C19.1684 24.3541 18.8406 23.2568 18.8406 22.063C18.8406 20.0236 19.5989 18.3387 21.1156 17.0082C22.6322 15.6776 24.788 15.0123 27.5829 15.0123C30.3513 15.0123 32.5004 15.6776 34.0303 17.0082C35.5602 18.3387 36.3251 20.0236 36.3251 22.063C36.3251 23.3314 35.9741 24.4598 35.2721 25.4484C34.5701 26.437 33.5833 27.1924 32.3116 27.7147C33.9276 28.324 35.1562 29.2131 35.9973 30.382C36.8384 31.5509 37.259 32.9001 37.259 34.4296C37.259 36.954 36.4013 39.0057 34.686 40.585C32.9706 42.1642 30.689 42.9538 27.8412 42.9538C25.192 42.9538 22.9866 42.301 21.2249 40.9953C19.1453 39.4534 18.1055 37.3394 18.1055 34.6535C18.1055 33.1737 18.4962 31.8152 19.2777 30.5779C20.0592 29.3406 21.2911 28.3862 22.9733 27.7147ZM24.1257 22.436C24.1257 23.4806 24.4403 24.2951 25.0695 24.8795C25.6987 25.464 26.5364 25.7562 27.5829 25.7562C28.6425 25.7562 29.4903 25.4609 30.1261 24.8702C30.7619 24.2795 31.0798 23.4619 31.0798 22.4174C31.0798 21.435 30.7652 20.6485 30.136 20.0578C29.5068 19.4672 28.6757 19.1718 27.6425 19.1718C26.5696 19.1718 25.7152 19.4703 25.0794 20.0672C24.4436 20.6641 24.1257 21.4537 24.1257 22.436ZM23.6091 34.1498C23.6091 35.5923 24.0032 36.7177 24.7913 37.5259C25.5794 38.3342 26.5629 38.7384 27.7418 38.7384C28.8942 38.7384 29.8479 38.3498 30.6029 37.5726C31.3579 36.7954 31.7355 35.6731 31.7355 34.2058C31.7355 32.925 31.3513 31.896 30.5831 31.1188C29.8148 30.3416 28.8412 29.953 27.6624 29.953C26.298 29.953 25.2814 30.3945 24.6125 31.2773C23.9436 32.1602 23.6091 33.1177 23.6091 34.1498Z" fill="#212B36"/>
<path d="M19.1069 23.8418C19.0216 23.5355 18.9634 23.2674 18.9305 23.0752C18.8975 22.883 18.8899 22.6067 18.8513 22.2433C18.8127 21.8798 18.8849 20.4943 19.2482 19.6418C19.7917 18.3666 20.1281 18.0151 20.8469 17.2679C21.5657 16.5206 22.8202 15.5954 25.1422 15.199C27.4641 14.8026 29.7702 15.0819 30.6305 15.317C31.4908 15.5521 32.5961 15.7644 34.004 16.9247C35.4119 18.085 35.5638 18.6477 36.0375 19.6418C36.5111 20.6359 36.5053 22.2372 36.335 23.2882C36.1647 24.3392 35.6982 24.9733 35.1249 25.787C34.2472 27.0328 31.7241 28.0265 31.6068 28.0822C31.457 28.1532 31.2923 28.2268 31.1161 28.3022C29.2102 29.1176 25.9448 30.1477 25.3137 30.5832C24.7384 30.9803 24.4298 31.4798 24.0636 32.0607C23.4782 32.9891 23.4317 34.3861 23.9241 36.2516C24.1287 36.7053 24.369 37.0815 24.645 37.3803C25.0089 37.7741 26.0415 38.6366 27.5053 38.7153C28.9692 38.7941 29.5462 38.3252 29.9882 38.1144C30.4301 37.9036 31.1645 37.0683 31.4908 36.174C31.837 35.3157 31.7715 34.4053 31.7951 34.0646C31.8297 33.5662 31.5498 33.3356 30.9555 33.3726C30.6381 33.3547 30.3965 33.1022 30.4159 32.8087C30.4239 32.6876 30.4763 32.5727 30.5645 32.4829L33.757 29.2349C34.1084 28.8774 34.7067 28.8511 35.0932 29.1761C35.1287 29.206 35.1617 29.2383 35.192 29.2728L38.273 32.7915C38.394 32.9296 38.371 33.1323 38.2216 33.2442C38.1687 33.2839 38.1043 33.3083 38.0365 33.3144C37.6698 33.3476 37.3906 33.6335 37.3923 33.9743C37.3925 34.0079 37.3927 34.038 37.393 34.0646C37.3993 34.699 37.393 35.2177 37.3118 35.7486C36.9725 37.8738 36.307 38.6579 36.0876 39.0254C35.2124 40.4917 33.0717 42.1083 30.5259 42.6664C27.8288 43.2577 25.02 42.7697 23.8631 42.3794C23.3244 42.1977 21.8725 41.6117 21.0198 40.8984C20.8172 40.7289 18.9271 39.1872 18.2607 36.7997C17.7627 35.0151 17.9466 32.4306 19.0872 30.5832C19.2968 30.2438 19.8919 29.6438 20.2088 29.3273C21.0529 28.565 21.2845 28.457 22.2421 27.9864C23.2927 27.6155 28.7185 25.6888 29.6293 25.2315C30.5402 24.7742 30.7916 24.1539 30.9798 23.5649C31.168 22.9759 31.2414 22.3164 31.0279 21.3772C30.8145 20.438 29.7565 19.6502 29.2975 19.4726C29.0569 19.3639 28.1605 19.0177 27.01 19.1854C25.8596 19.3532 25.4862 19.6164 24.8097 20.2924C24.3587 20.743 24.11 21.4108 24.0636 22.2959V22.6548L19.1069 23.8418Z" fill="#212B36"/>
<path d="M52.0715 42.7633C51.893 42.3619 51.7396 41.9389 51.6114 41.4941C51.4831 41.0494 51.3911 40.5938 51.3353 40.1274C50.8334 40.9843 50.1726 41.6948 49.3528 42.2589C48.533 42.8229 47.5543 43.1049 46.4166 43.1049C44.5205 43.1049 43.0594 42.6304 42.0333 41.6812C41.0072 40.7321 40.4941 39.4386 40.4941 37.8006C40.4941 36.0759 41.1773 34.739 42.5436 33.7898C43.9099 32.8407 45.9036 32.3661 48.5246 32.3661H51.2517V30.9668C51.2517 30.1207 51.023 29.4645 50.5657 28.9981C50.1084 28.5316 49.4337 28.2984 48.5414 28.2984C47.7495 28.2984 47.1388 28.4855 46.7094 28.8597C46.28 29.234 46.0653 29.7519 46.0653 30.4136L41.3474 30.3974L41.3307 30.2997C41.2526 28.8136 41.9162 27.531 43.3215 26.4517C44.7269 25.3723 46.5728 24.8327 48.8592 24.8327C51.023 24.8327 52.7797 25.3669 54.1293 26.4354C55.4788 27.5038 56.1536 29.0252 56.1536 30.9994V38.2725C56.1536 39.0969 56.2178 39.8724 56.346 40.5992C56.4743 41.326 56.6778 42.0473 56.9567 42.7633H52.0715ZM47.6045 39.5904C48.4633 39.5904 49.2273 39.3843 49.8965 38.9721C50.5657 38.5599 51.0174 38.0827 51.2517 37.5403V35.0508H48.5246C47.4874 35.0508 46.7011 35.303 46.1657 35.8074C45.6303 36.3118 45.3626 36.922 45.3626 37.6379C45.3626 38.2237 45.5634 38.6955 45.9649 39.0535C46.3664 39.4114 46.913 39.5904 47.6045 39.5904ZM64.9872 42.7633H60.102V17.3806H64.9872V42.7633ZM74.1386 42.7633H69.2534V17.3806H74.1386V42.7633ZM77.401 33.798C77.401 31.1729 78.1539 29.0225 79.6596 27.3466C81.1653 25.6706 83.251 24.8327 85.9167 24.8327C88.5935 24.8327 90.6904 25.6679 92.2072 27.3384C93.7241 29.0089 94.4826 31.1621 94.4826 33.798V34.1397C94.4826 36.7864 93.7269 38.9423 92.2156 40.6074C90.7043 42.2724 88.6158 43.1049 85.9501 43.1049C83.2733 43.1049 81.1792 42.2724 79.6679 40.6074C78.1566 38.9423 77.401 36.7864 77.401 34.1397V33.798ZM82.2695 34.1397C82.2695 35.7451 82.5595 37.0332 83.1395 38.004C83.7194 38.9748 84.6563 39.4603 85.9501 39.4603C87.2105 39.4603 88.1334 38.9721 88.719 37.9959C89.3046 37.0196 89.5973 35.7342 89.5973 34.1397V33.798C89.5973 32.236 89.3018 30.9614 88.7106 29.9743C88.1195 28.9872 87.1882 28.4937 85.9167 28.4937C84.6563 28.4937 83.7334 28.9899 83.1478 29.9824C82.5623 30.975 82.2695 32.2468 82.2695 33.798V34.1397ZM105.09 39.4603C105.959 39.4603 106.657 39.2135 107.181 38.7199C107.705 38.2264 107.967 37.5674 107.967 36.743H112.401L112.451 36.8406C112.495 38.6196 111.807 40.1084 110.385 41.307C108.963 42.5056 107.198 43.1049 105.09 43.1049C102.39 43.1049 100.31 42.2751 98.8491 40.6155C97.388 38.9558 96.6575 36.8244 96.6575 34.221V33.7329C96.6575 31.1404 97.3852 29.0089 98.8408 27.3384C100.296 25.6679 102.374 24.8327 105.073 24.8327C107.303 24.8327 109.102 25.451 110.468 26.6876C111.835 27.9242 112.495 29.5513 112.451 31.5689L112.417 31.6665H107.967C107.967 30.7553 107.711 29.9987 107.198 29.3967C106.684 28.7947 105.976 28.4937 105.073 28.4937C103.779 28.4937 102.867 28.9818 102.337 29.958C101.808 30.9343 101.543 32.1926 101.543 33.7329V34.221C101.543 35.7939 101.808 37.0603 102.337 38.0203C102.867 38.9803 103.785 39.4603 105.09 39.4603ZM125.852 42.7633C125.673 42.3619 125.52 41.9389 125.392 41.4941C125.263 41.0494 125.171 40.5938 125.116 40.1274C124.614 40.9843 123.953 41.6948 123.133 42.2589C122.313 42.8229 121.335 43.1049 120.197 43.1049C118.301 43.1049 116.84 42.6304 115.814 41.6812C114.787 40.7321 114.274 39.4386 114.274 37.8006C114.274 36.0759 114.958 34.739 116.324 33.7898C117.69 32.8407 119.684 32.3661 122.305 32.3661H125.032V30.9668C125.032 30.1207 124.803 29.4645 124.346 28.9981C123.889 28.5316 123.214 28.2984 122.322 28.2984C121.53 28.2984 120.919 28.4855 120.49 28.8597C120.06 29.234 119.846 29.7519 119.846 30.4136L115.128 30.3974L115.111 30.2997C115.033 28.8136 115.696 27.531 117.102 26.4517C118.507 25.3723 120.353 24.8327 122.64 24.8327C124.803 24.8327 126.56 25.3669 127.91 26.4354C129.259 27.5038 129.934 29.0252 129.934 30.9994V38.2725C129.934 39.0969 129.998 39.8724 130.126 40.5992C130.255 41.326 130.458 42.0473 130.737 42.7633H125.852ZM121.385 39.5904C122.244 39.5904 123.008 39.3843 123.677 38.9721C124.346 38.5599 124.798 38.0827 125.032 37.5403V35.0508H122.305C121.268 35.0508 120.481 35.303 119.946 35.8074C119.411 36.3118 119.143 36.922 119.143 37.6379C119.143 38.2237 119.344 38.6955 119.745 39.0535C120.147 39.4114 120.693 39.5904 121.385 39.5904ZM139.437 20.8463V25.1581H142.482V28.4937H139.437V37.4589C139.437 38.1423 139.582 38.6304 139.872 38.9233C140.162 39.2162 140.552 39.3626 141.043 39.3626C141.299 39.3626 141.52 39.3491 141.704 39.322C141.888 39.2948 142.102 39.2487 142.348 39.1836L142.766 42.6168C142.275 42.7795 141.796 42.9016 141.327 42.9829C140.859 43.0643 140.351 43.1049 139.805 43.1049C138.121 43.1049 136.824 42.6548 135.915 41.7545C135.006 40.8541 134.551 39.4277 134.551 37.4752V28.4937H131.908V25.1581H134.551V20.8463H139.437ZM153.607 43.1049C150.997 43.1049 148.912 42.2914 147.35 40.6643C145.789 39.0372 145.008 36.9708 145.008 34.4651V33.8142C145.008 31.2 145.747 29.0469 147.225 27.3547C148.702 25.6625 150.685 24.8218 153.172 24.8327C155.615 24.8327 157.511 25.5486 158.86 26.9805C160.21 28.4123 160.885 30.3485 160.885 32.7892V35.3763H150.077L150.044 35.4739C150.133 36.6345 150.532 37.5891 151.24 38.3376C151.948 39.086 152.91 39.4603 154.126 39.4603C155.208 39.4603 156.106 39.3545 156.819 39.143C157.533 38.9314 158.314 38.5979 159.162 38.1423L160.483 41.0711C159.747 41.6568 158.782 42.1422 157.589 42.5273C156.396 42.9124 155.068 43.1049 153.607 43.1049ZM153.172 28.4937C152.269 28.4937 151.555 28.8299 151.031 29.5025C150.506 30.175 150.183 31.059 150.06 32.1546L150.111 32.236H156.1V31.8129C156.1 30.8041 155.857 29.9987 155.372 29.3967C154.887 28.7947 154.154 28.4937 153.172 28.4937Z" fill="#212B36"/>
<path d="M52.0715 42.7633C51.893 42.3619 51.7396 41.9389 51.6114 41.4941C51.4831 41.0494 51.3911 40.5938 51.3353 40.1274C50.8334 40.9843 50.1726 41.6948 49.3528 42.2589C48.533 42.8229 47.5543 43.1049 46.4166 43.1049C44.5205 43.1049 43.0594 42.6304 42.0333 41.6812C41.0072 40.7321 40.4941 39.4386 40.4941 37.8006C40.4941 36.0759 41.1773 34.739 42.5436 33.7898C43.9099 32.8407 45.9036 32.3661 48.5246 32.3661H51.2517V30.9668C51.2517 30.1207 51.023 29.4645 50.5657 28.9981C50.1084 28.5316 49.4337 28.2984 48.5414 28.2984C47.7495 28.2984 47.1388 28.4855 46.7094 28.8597C46.28 29.234 46.0653 29.7519 46.0653 30.4136L41.3474 30.3974L41.3307 30.2997C41.2526 28.8136 41.9162 27.531 43.3215 26.4517C44.7269 25.3723 46.5728 24.8327 48.8592 24.8327C51.023 24.8327 52.7797 25.3669 54.1293 26.4354C55.4788 27.5038 56.1536 29.0252 56.1536 30.9994V38.2725C56.1536 39.0969 56.2178 39.8724 56.346 40.5992C56.4743 41.326 56.6778 42.0473 56.9567 42.7633H52.0715ZM47.6045 39.5904C48.4633 39.5904 49.2273 39.3843 49.8965 38.9721C50.5657 38.5599 51.0174 38.0827 51.2517 37.5403V35.0508H48.5246C47.4874 35.0508 46.7011 35.303 46.1657 35.8074C45.6303 36.3118 45.3626 36.922 45.3626 37.6379C45.3626 38.2237 45.5634 38.6955 45.9649 39.0535C46.3664 39.4114 46.913 39.5904 47.6045 39.5904ZM64.9872 42.7633H60.102V17.3806H64.9872V42.7633ZM74.1386 42.7633H69.2534V17.3806H74.1386V42.7633ZM77.401 33.798C77.401 31.1729 78.1539 29.0225 79.6596 27.3466C81.1653 25.6706 83.251 24.8327 85.9167 24.8327C88.5935 24.8327 90.6904 25.6679 92.2072 27.3384C93.7241 29.0089 94.4826 31.1621 94.4826 33.798V34.1397C94.4826 36.7864 93.7269 38.9423 92.2156 40.6074C90.7043 42.2724 88.6158 43.1049 85.9501 43.1049C83.2733 43.1049 81.1792 42.2724 79.6679 40.6074C78.1566 38.9423 77.401 36.7864 77.401 34.1397V33.798ZM82.2695 34.1397C82.2695 35.7451 82.5595 37.0332 83.1395 38.004C83.7194 38.9748 84.6563 39.4603 85.9501 39.4603C87.2105 39.4603 88.1334 38.9721 88.719 37.9959C89.3046 37.0196 89.5973 35.7342 89.5973 34.1397V33.798C89.5973 32.236 89.3018 30.9614 88.7106 29.9743C88.1195 28.9872 87.1882 28.4937 85.9167 28.4937C84.6563 28.4937 83.7334 28.9899 83.1478 29.9824C82.5623 30.975 82.2695 32.2468 82.2695 33.798V34.1397ZM105.09 39.4603C105.959 39.4603 106.657 39.2135 107.181 38.7199C107.705 38.2264 107.967 37.5674 107.967 36.743H112.401L112.451 36.8406C112.495 38.6196 111.807 40.1084 110.385 41.307C108.963 42.5056 107.198 43.1049 105.09 43.1049C102.39 43.1049 100.31 42.2751 98.8491 40.6155C97.388 38.9558 96.6575 36.8244 96.6575 34.221V33.7329C96.6575 31.1404 97.3852 29.0089 98.8408 27.3384C100.296 25.6679 102.374 24.8327 105.073 24.8327C107.303 24.8327 109.102 25.451 110.468 26.6876C111.835 27.9242 112.495 29.5513 112.451 31.5689L112.417 31.6665H107.967C107.967 30.7553 107.711 29.9987 107.198 29.3967C106.684 28.7947 105.976 28.4937 105.073 28.4937C103.779 28.4937 102.867 28.9818 102.337 29.958C101.808 30.9343 101.543 32.1926 101.543 33.7329V34.221C101.543 35.7939 101.808 37.0603 102.337 38.0203C102.867 38.9803 103.785 39.4603 105.09 39.4603ZM125.852 42.7633C125.673 42.3619 125.52 41.9389 125.392 41.4941C125.263 41.0494 125.171 40.5938 125.116 40.1274C124.614 40.9843 123.953 41.6948 123.133 42.2589C122.313 42.8229 121.335 43.1049 120.197 43.1049C118.301 43.1049 116.84 42.6304 115.814 41.6812C114.787 40.7321 114.274 39.4386 114.274 37.8006C114.274 36.0759 114.958 34.739 116.324 33.7898C117.69 32.8407 119.684 32.3661 122.305 32.3661H125.032V30.9668C125.032 30.1207 124.803 29.4645 124.346 28.9981C123.889 28.5316 123.214 28.2984 122.322 28.2984C121.53 28.2984 120.919 28.4855 120.49 28.8597C120.06 29.234 119.846 29.7519 119.846 30.4136L115.128 30.3974L115.111 30.2997C115.033 28.8136 115.696 27.531 117.102 26.4517C118.507 25.3723 120.353 24.8327 122.64 24.8327C124.803 24.8327 126.56 25.3669 127.91 26.4354C129.259 27.5038 129.934 29.0252 129.934 30.9994V38.2725C129.934 39.0969 129.998 39.8724 130.126 40.5992C130.255 41.326 130.458 42.0473 130.737 42.7633H125.852ZM121.385 39.5904C122.244 39.5904 123.008 39.3843 123.677 38.9721C124.346 38.5599 124.798 38.0827 125.032 37.5403V35.0508H122.305C121.268 35.0508 120.481 35.303 119.946 35.8074C119.411 36.3118 119.143 36.922 119.143 37.6379C119.143 38.2237 119.344 38.6955 119.745 39.0535C120.147 39.4114 120.693 39.5904 121.385 39.5904ZM139.437 20.8463V25.1581H142.482V28.4937H139.437V37.4589C139.437 38.1423 139.582 38.6304 139.872 38.9233C140.162 39.2162 140.552 39.3626 141.043 39.3626C141.299 39.3626 141.52 39.3491 141.704 39.322C141.888 39.2948 142.102 39.2487 142.348 39.1836L142.766 42.6168C142.275 42.7795 141.796 42.9016 141.327 42.9829C140.859 43.0643 140.351 43.1049 139.805 43.1049C138.121 43.1049 136.824 42.6548 135.915 41.7545C135.006 40.8541 134.551 39.4277 134.551 37.4752V28.4937H131.908V25.1581H134.551V20.8463H139.437ZM153.607 43.1049C150.997 43.1049 148.912 42.2914 147.35 40.6643C145.789 39.0372 145.008 36.9708 145.008 34.4651V33.8142C145.008 31.2 145.747 29.0469 147.225 27.3547C148.702 25.6625 150.685 24.8218 153.172 24.8327C155.615 24.8327 157.511 25.5486 158.86 26.9805C160.21 28.4123 160.885 30.3485 160.885 32.7892V35.3763H150.077L150.044 35.4739C150.133 36.6345 150.532 37.5891 151.24 38.3376C151.948 39.086 152.91 39.4603 154.126 39.4603C155.208 39.4603 156.106 39.3545 156.819 39.143C157.533 38.9314 158.314 38.5979 159.162 38.1423L160.483 41.0711C159.747 41.6568 158.782 42.1422 157.589 42.5273C156.396 42.9124 155.068 43.1049 153.607 43.1049ZM153.172 28.4937C152.269 28.4937 151.555 28.8299 151.031 29.5025C150.506 30.175 150.183 31.059 150.06 32.1546L150.111 32.236H156.1V31.8129C156.1 30.8041 155.857 29.9987 155.372 29.3967C154.887 28.7947 154.154 28.4937 153.172 28.4937Z" fill="#212B36"/>
<path d="M166.013 43.1522C167.11 43.1522 168 42.2866 168 41.2188C168 40.1509 167.11 39.2853 166.013 39.2853C164.916 39.2853 164.027 40.1509 164.027 41.2188C164.027 42.2866 164.916 43.1522 166.013 43.1522Z" fill="#212B36"/>
</svg>
