<svg width="186" height="60" viewBox="0 0 186 60" fill="none" xmlns="http://www.w3.org/2000/svg">
<path fill-rule="evenodd" clip-rule="evenodd" d="M153 12H100.2V48H153V12ZM116.875 21.9122V29.7646V37.58L116.875 37.6049L116.875 37.63C116.876 37.6631 116.877 37.6959 116.875 37.7278C116.867 37.8184 116.891 37.872 116.995 37.8572C117.02 37.8547 117.044 37.8555 117.069 37.8564C117.081 37.8568 117.094 37.8572 117.106 37.8572C117.543 37.8572 117.98 37.8574 118.418 37.8576H118.421C119.295 37.858 120.17 37.8584 121.045 37.8572C121.073 37.8572 121.097 37.8575 121.119 37.8578C121.203 37.8588 121.244 37.8593 121.264 37.8391C121.282 37.8199 121.281 37.7821 121.28 37.7083C121.279 37.6951 121.279 37.6809 121.279 37.6653C121.279 37.6515 121.278 37.6366 121.278 37.6206V21.9344C121.278 21.9221 121.278 21.9098 121.278 21.8974C121.277 21.8728 121.276 21.8482 121.278 21.8235C121.288 21.7311 121.256 21.6831 121.156 21.6941C121.137 21.6966 121.116 21.6958 121.095 21.695L121.095 21.695C121.085 21.6946 121.074 21.6941 121.064 21.6941C120.622 21.6941 120.181 21.6939 119.739 21.6937H119.739H119.739C118.855 21.6933 117.971 21.6929 117.087 21.6941C117.061 21.6941 117.038 21.6938 117.018 21.6935C116.945 21.6924 116.909 21.6919 116.891 21.7099C116.872 21.7281 116.873 21.7652 116.874 21.84L116.874 21.8402C116.874 21.8611 116.875 21.885 116.875 21.9122ZM138.809 21.6947H132.24C130.051 21.6947 127.862 21.6947 125.675 21.6928C125.658 21.6928 125.642 21.693 125.625 21.6933C125.593 21.6937 125.56 21.6941 125.527 21.6928C125.453 21.6891 125.427 21.7243 125.433 21.7926C125.434 21.8135 125.433 21.8335 125.433 21.8538V21.8539L125.433 21.871L125.433 21.885V25.6366L125.432 25.6755C125.432 25.756 125.432 25.7957 125.452 25.815C125.471 25.8338 125.509 25.8334 125.583 25.8328C125.599 25.8326 125.616 25.8325 125.634 25.8325H129.761C129.895 25.8325 129.962 25.8325 129.995 25.8658C130.027 25.8984 130.027 25.9631 130.027 26.0912V37.6581C130.027 37.6803 130.027 37.7001 130.026 37.7176C130.025 37.784 130.025 37.8187 130.042 37.8368C130.061 37.8566 130.101 37.8564 130.184 37.856L130.225 37.8559H130.28H134.185C134.309 37.8559 134.37 37.8559 134.401 37.8251C134.431 37.7949 134.431 37.7348 134.431 37.6156V26.0487C134.431 26.0236 134.431 26.0014 134.43 25.9818C134.429 25.9103 134.429 25.8731 134.447 25.8539C134.467 25.8331 134.509 25.8334 134.596 25.8341L134.651 25.8343H138.851C139.033 25.8343 139.033 25.8343 139.035 25.6551V25.5996V21.922C139.035 21.8964 139.035 21.8736 139.035 21.8533C139.036 21.772 139.037 21.7316 139.017 21.7119C138.997 21.6925 138.958 21.693 138.879 21.6941C138.859 21.6944 138.835 21.6947 138.809 21.6947Z" fill="#212B36"/>
<path fill-rule="evenodd" clip-rule="evenodd" d="M85.8 12H33V48H85.8L100.2 30L85.8 12ZM56.3462 27.3694C56.4263 27.4343 56.5069 27.4997 56.5886 27.5652C56.6428 27.5322 56.6763 27.4871 56.7078 27.4446C56.7152 27.4347 56.7224 27.4249 56.7298 27.4155C57.0158 27.0756 57.2999 26.7339 57.5841 26.3922L57.5842 26.3921L57.5843 26.392L57.5845 26.3917C58.155 25.7097 58.7236 25.0278 59.2922 24.344C59.4055 24.2073 59.4018 24.1444 59.2718 24.0336C59.1696 23.9449 59.0655 23.858 58.9596 23.7711C58.0565 23.0319 57.0643 22.4553 55.9401 22.1208C55.1894 21.8991 54.422 21.7771 53.6415 21.7235C52.6233 21.6551 51.6143 21.6884 50.6146 21.9194C47.1138 22.7251 44.5013 25.6229 44.1947 29.3375C44.1129 30.3391 44.1909 31.3315 44.4474 32.3054C45.0308 34.5102 46.2981 36.1993 48.3105 37.3118C49.4068 37.918 50.5942 38.2377 51.8428 38.3375C52.9001 38.4225 53.9463 38.3578 54.9794 38.1249C56.7261 37.7313 58.2702 36.9366 59.6434 35.8001C59.753 35.7095 59.7976 35.619 59.7976 35.4748C59.7931 33.7068 59.7934 31.9375 59.7937 30.169L59.7939 28.8422C59.7939 28.8192 59.7923 28.7959 59.7907 28.7726C59.7871 28.7209 59.7835 28.6694 59.7976 28.6223C59.8139 28.5676 59.7844 28.5362 59.7557 28.5056C59.732 28.4804 59.7088 28.4557 59.7121 28.419C59.7196 28.358 59.6787 28.3488 59.6304 28.3488H59.5003H52.2553C52.2412 28.3488 52.2268 28.3492 52.2123 28.3496C52.1832 28.3504 52.1538 28.3512 52.1253 28.3488C52.0509 28.3414 52.0268 28.3783 52.0324 28.4467C52.0349 28.4751 52.034 28.5043 52.0332 28.5333C52.0328 28.5477 52.0324 28.562 52.0324 28.5761C52.0324 28.9642 52.0322 29.3523 52.032 29.7403C52.0315 30.5165 52.0311 31.2927 52.0324 32.0689C52.0324 32.101 52.0318 32.1286 52.0313 32.1524V32.1524C52.0298 32.2234 52.029 32.2599 52.0468 32.2785C52.0658 32.2982 52.1056 32.2977 52.1876 32.2967C52.208 32.2965 52.2311 32.2962 52.2572 32.2962H55.1745C55.1887 32.2962 55.2021 32.2961 55.2146 32.296C55.2247 32.2959 55.2342 32.2958 55.2432 32.2957C55.3241 32.2947 55.3633 32.2943 55.3821 32.3136C55.3998 32.3319 55.3992 32.3679 55.3981 32.4379C55.3977 32.4626 55.3972 32.4915 55.3975 32.5254C55.3987 32.6941 55.3983 32.862 55.3979 33.0301C55.3977 33.1143 55.3975 33.1986 55.3975 33.2831V33.2892C55.3975 33.6361 55.3975 33.6388 55.0835 33.7894C54.1637 34.2293 53.1919 34.3549 52.1885 34.2293C51.0736 34.0907 50.1816 33.564 49.5276 32.6529C49.1021 32.0596 48.8698 31.3907 48.7824 30.6699C48.6728 29.7496 48.7843 28.8644 49.2024 28.029C49.706 27.0256 50.4678 26.3048 51.5623 25.974C52.3297 25.7412 53.1064 25.8021 53.8757 25.9703C54.5725 26.1219 55.1801 26.4619 55.7394 26.8888C55.9444 27.0437 56.1437 27.2053 56.3462 27.3694ZM76.9853 24.0168C75.2665 22.4534 73.2188 21.7086 71.1023 21.692C70.125 21.6939 69.3947 21.7733 68.6199 21.9748C66.3715 22.5606 64.6118 23.8173 63.443 25.8242C62.2427 27.883 61.9993 30.0914 62.67 32.3626C63.4207 34.9019 65.0206 36.7499 67.4957 37.7793C69.3966 38.5684 71.3662 38.6737 73.3526 38.1526C75.6604 37.5483 77.4294 36.2121 78.5889 34.1275C79.5662 32.37 79.8282 30.485 79.464 28.5168C79.137 26.7483 78.3194 25.2329 76.9853 24.0168ZM67.4938 27.9865C68.2427 26.606 69.4393 25.9444 70.6006 25.9185C72.9568 25.9129 74.4972 27.238 74.9171 29.075C75.1717 30.1819 75.0584 31.2575 74.5139 32.2628C73.8729 33.4437 72.8732 34.1312 71.5279 34.2846C70.2272 34.4343 69.0918 34.0665 68.1646 33.1314C67.57 32.5327 67.2114 31.8027 67.059 30.9784C66.8658 29.9343 66.9847 28.9234 67.4938 27.9865Z" fill="#212B36"/>
</svg>
