<svg width="186" height="60" viewBox="0 0 186 60" fill="none" xmlns="http://www.w3.org/2000/svg">
<g clip-path="url(#clip0_1535_3189)">
<path d="M76.4749 18.9363C76.4047 17.8318 77.2449 16.8802 78.3497 16.8132L155.67 12.1199C156.765 12.0535 157.708 12.8805 157.786 13.974L159.662 40.2932C159.741 41.4005 158.903 42.3602 157.795 42.4313L80.2893 47.4046C79.1866 47.4754 78.2354 46.6384 78.1653 45.5356L76.4749 18.9363Z" fill="#212B36"/>
<path d="M29.802 45.7042C28.6843 45.7708 27.7294 44.9162 27.6748 43.7978C27.3319 36.7785 26.4541 22.7112 26.1261 17.5132C26.0565 16.4093 26.896 15.4677 28 15.3993L68.1597 12.912C68.8359 12.8701 69.4874 13.1734 69.8906 13.7179L79.4025 26.5622C79.8797 27.2065 79.9259 28.0734 79.5201 28.7648L71.5604 42.3261C71.2228 42.9014 70.6205 43.2705 69.9546 43.3102L29.802 45.7042Z" fill="#212B36"/>
<path d="M36.4364 30.3169C36.3678 29.3516 36.4909 28.3821 36.7981 27.4677C37.0889 26.5894 37.547 25.7802 38.1454 25.0878C38.7621 24.3871 39.5061 23.8186 40.3351 23.4145C41.2223 22.9748 42.1836 22.7171 43.1658 22.6554C44.2941 22.5769 45.3029 22.6794 46.1922 22.963C47.1015 23.2564 47.9535 23.7137 48.7087 24.3136L46.7128 27.1582C46.2361 26.7887 45.706 26.4992 45.142 26.3003C44.5818 26.1199 43.9931 26.0533 43.4083 26.104C42.9503 26.1276 42.5024 26.2524 42.095 26.4699C41.6876 26.6874 41.33 26.9926 41.0464 27.365C40.4349 28.1389 40.1638 29.055 40.2331 30.1134C40.3065 31.2402 40.7077 32.1463 41.4365 32.8317C42.1654 33.517 43.0581 33.8224 44.1146 33.7478C44.9777 33.6867 45.6793 33.4376 46.2194 33.0005L46.106 31.2671L43.4495 31.4529L43.269 28.6868L49.4219 28.2576L49.8298 34.4945C48.2488 36.0213 46.3651 36.8603 44.1786 37.0112C42.8049 37.1076 41.5451 36.8895 40.399 36.3568C39.2772 35.8467 38.3165 35.0217 37.626 33.9755C36.9233 32.9198 36.5268 31.7003 36.4364 30.3169Z" fill="white"/>
<path d="M52.8296 29.1931C52.7634 28.2337 52.89 27.2705 53.2014 26.364C53.4981 25.4823 53.9588 24.6691 54.5575 23.9701C55.1749 23.2634 55.92 22.6883 56.751 22.277C58.5356 21.3924 60.5806 21.2481 62.465 21.8739C63.3361 22.1631 64.1436 22.6265 64.8415 23.2378C65.5203 23.8458 66.0756 24.587 66.4751 25.4183C66.897 26.2816 67.1446 27.2246 67.2029 28.1899C67.2684 29.1494 67.1421 30.1127 66.8317 31.0196C66.5373 31.902 66.078 32.716 65.48 33.4155C64.8646 34.121 64.1213 34.6951 63.2922 35.1053C62.4111 35.5501 61.4537 35.8107 60.4748 35.8723C59.1265 35.9665 57.8808 35.7329 56.7377 35.1714C55.6265 34.6362 54.6768 33.7993 53.99 32.75C53.3 31.6941 52.899 30.4651 52.8296 29.1931ZM56.6237 28.9281C56.69 29.9503 57.07 30.8054 57.7638 31.4934C58.4576 32.1815 59.2988 32.4908 60.2873 32.4214C61.2881 32.3521 62.0818 31.9334 62.6683 31.1656C63.2549 30.3977 63.5141 29.4933 63.4461 28.4523C63.3794 27.4301 62.9994 26.5749 62.306 25.8869C61.6126 25.1989 60.7643 24.8898 59.761 24.9596C58.7729 25.0285 57.9855 25.4469 57.399 26.2148C56.8125 26.9826 56.554 27.8871 56.6237 28.9281Z" fill="white"/>
<path d="M88.1064 38.8039L87.2031 24.9965L90.9041 24.7386L91.8105 38.546L88.1064 38.8039Z" fill="white"/>
<path d="M93.0303 27.9664L92.8105 24.6045L104.538 23.7865L104.758 27.1477L100.741 27.4265L101.425 37.8772L97.7239 38.1351L97.0404 27.6843L93.0303 27.9664Z" fill="white"/>
<path d="M104.51 32.3111C104.457 31.5641 104.54 30.8135 104.754 30.098C104.951 29.423 105.274 28.7942 105.704 28.2467C106.139 27.7065 106.676 27.2639 107.282 26.9465C107.926 26.6054 108.632 26.4062 109.355 26.3615C110.219 26.3013 111 26.4034 111.699 26.6677C112.357 26.9061 112.949 27.3074 113.423 27.8364C113.881 28.3606 114.243 28.9667 114.49 29.6249C114.757 30.3357 114.915 31.0853 114.958 31.8465C114.981 32.1868 114.991 32.4439 114.991 32.618L108.073 33.1003C108.254 33.6748 108.55 34.101 108.96 34.3789C109.37 34.6568 109.86 34.7757 110.43 34.7356C111.234 34.6775 111.974 34.2537 112.649 33.4641L114.767 35.0542C113.76 36.5619 112.309 37.3819 110.414 37.5141C109.338 37.5895 108.367 37.4253 107.5 37.0213C106.648 36.6323 105.922 35.9978 105.41 35.1936C104.881 34.377 104.581 33.4161 104.51 32.3111ZM107.892 31.1856L111.481 30.9349C111.373 30.3425 111.15 29.8844 110.811 29.5607C110.472 29.237 110.056 29.092 109.565 29.1256C109.343 29.1369 109.126 29.1968 108.929 29.3014C108.731 29.406 108.558 29.5529 108.42 29.7322C108.123 30.1039 107.947 30.5883 107.892 31.1856Z" fill="white"/>
<path d="M116.252 31.4925C116.199 30.7453 116.282 29.9946 116.496 29.2787C116.693 28.6039 117.016 27.9751 117.446 27.4275C117.88 26.8876 118.417 26.4451 119.023 26.1273C119.668 25.7861 120.374 25.5871 121.097 25.5429C121.961 25.4827 122.742 25.5846 123.44 25.8485C124.099 26.086 124.691 26.4866 125.165 27.0152C125.623 27.5391 125.985 28.1449 126.232 28.803C126.499 29.515 126.657 30.2657 126.7 31.0279C126.723 31.3682 126.733 31.6253 126.732 31.7994L119.815 32.2823C119.996 32.8564 120.292 33.2824 120.702 33.5603C121.112 33.8382 121.602 33.9573 122.172 33.9176C122.98 33.8605 123.72 33.4362 124.393 32.6449L126.51 34.235C125.503 35.7427 124.052 36.5626 122.157 36.6948C121.081 36.7703 120.11 36.606 119.243 36.2021C118.391 35.813 117.665 35.1784 117.153 34.3744C116.624 33.5577 116.324 32.5971 116.252 31.4925ZM119.634 30.3663L123.223 30.1157C123.115 29.5237 122.892 29.0656 122.552 28.7415C122.213 28.4174 121.797 28.2723 121.306 28.3063C121.085 28.3176 120.868 28.3777 120.671 28.4824C120.473 28.5871 120.3 28.7341 120.162 28.9136C119.864 29.2862 119.688 29.7704 119.634 30.3663Z" fill="white"/>
<path d="M128.761 35.9691L128.064 25.2981L131.691 25.0449L131.79 26.5565C132.598 25.3262 133.591 24.6701 134.767 24.5881C135.86 24.5113 136.742 24.8012 137.413 25.4578C138.083 26.1143 138.459 27.0523 138.538 28.2716L138.995 35.2545L135.368 35.5071L134.988 29.7433C134.951 29.1731 134.79 28.7421 134.504 28.4503C134.219 28.1584 133.855 28.0275 133.413 28.0576C132.957 28.0899 132.6 28.2725 132.34 28.6053C132.08 28.9382 131.969 29.3867 132.005 29.9507L132.382 35.7145L128.761 35.9691Z" fill="white"/>
<path d="M140.18 33.7809L141.392 31.4166C142.637 32.1259 143.847 32.4396 145.022 32.3576C145.631 32.314 145.923 32.0958 145.897 31.7032C145.885 31.516 145.75 31.3701 145.494 31.2654C145.238 31.1607 144.797 31.0488 144.18 30.9291C143.711 30.8366 143.311 30.7454 142.981 30.6555C142.632 30.5588 142.292 30.4316 141.964 30.2753C141.656 30.1376 141.37 29.951 141.118 29.7224C140.887 29.498 140.7 29.2304 140.565 28.9339C140.407 28.5886 140.316 28.2147 140.297 27.8332C140.223 26.7033 140.547 25.7963 141.27 25.1123C141.994 24.4283 142.971 24.0435 144.201 23.958C144.966 23.9052 145.734 23.966 146.481 24.1386C147.205 24.2983 147.902 24.5699 148.548 24.9441L147.463 27.4085C146.927 27.1587 146.368 26.963 145.795 26.8242C145.237 26.6907 144.753 26.6383 144.343 26.6671C144.069 26.6859 143.864 26.7472 143.727 26.851C143.663 26.895 143.612 26.9561 143.578 27.0278C143.545 27.0996 143.531 27.1793 143.537 27.2587C143.55 27.4467 143.682 27.5926 143.936 27.6964C144.189 27.8003 144.636 27.9244 145.276 28.0688C145.744 28.1674 146.144 28.2649 146.475 28.3613C146.824 28.4652 147.164 28.5964 147.493 28.7539C147.801 28.8913 148.087 29.0777 148.339 29.3062C148.568 29.5272 148.755 29.7898 148.891 30.081C149.048 30.4149 149.139 30.7781 149.158 31.1489C149.234 32.3146 148.913 33.2364 148.196 33.9143C147.479 34.5923 146.474 34.9764 145.18 35.0667C143.334 35.1945 141.667 34.7659 140.18 33.7809Z" fill="white"/>
</g>
<defs>
<clipPath id="clip0_1535_3189">
<rect width="134" height="36" fill="white" transform="translate(26 12)"/>
</clipPath>
</defs>
</svg>
