<svg width="186" height="60" viewBox="0 0 186 60" fill="none" xmlns="http://www.w3.org/2000/svg">
<path d="M78.6416 24.423C78.6416 25.3387 78.5257 26.1677 78.2945 26.9106C78.0821 27.6115 77.7225 28.26 77.2395 28.8136C76.7756 29.3387 76.1922 29.7438 75.4894 30.0289C74.7858 30.314 73.9671 30.457 73.0323 30.457C72.607 30.457 72.1861 30.4315 71.7694 30.3787C71.3596 30.3336 70.9274 30.2579 70.4712 30.1532L70.5631 29.1626L70.6559 28.1719C70.6714 28.0065 70.7505 27.8532 70.8767 27.7438C71.0004 27.6315 71.1774 27.5753 71.4094 27.5753C71.5408 27.5753 71.7075 27.5974 71.9077 27.6426C72.1165 27.6877 72.3716 27.7106 72.6723 27.7106C73.0899 27.7106 73.4533 27.6536 73.7626 27.5404C74.0719 27.4289 74.3296 27.2451 74.5392 26.9898C74.748 26.7345 74.9018 26.4043 75.0032 25.9991C75.1106 25.5864 75.1647 25.0868 75.1647 24.5013V13.9413H78.6416V24.423ZM87.9393 16.9804C87.1592 17.0179 86.5096 17.0851 85.9924 17.183C85.4744 17.2732 85.0611 17.3932 84.7518 17.543C84.4511 17.6928 84.2346 17.8664 84.1032 18.0613C83.9795 18.2485 83.9176 18.4553 83.9176 18.68C83.9176 19.1311 84.0448 19.4494 84.2999 19.6374C84.5628 19.8247 84.9263 19.9183 85.3893 19.9183C85.922 19.9183 86.3825 19.8289 86.7682 19.6485C87.1635 19.4613 87.5526 19.1719 87.9393 18.7813V16.9804ZM81.4253 11.8349C82.1055 11.2329 82.8966 10.7665 83.7552 10.4613C84.6058 10.154 85.5251 10 86.5131 10C87.2245 10 87.8585 10.1123 88.4144 10.3379C88.9788 10.5626 89.4539 10.8783 89.8405 11.2834C90.2408 11.6911 90.5489 12.1785 90.7444 12.7132C90.958 13.2977 91.0639 13.9154 91.0571 14.537V21.8323H89.5965C89.2958 21.8323 89.0639 21.7915 88.9006 21.7089C88.746 21.6264 88.6188 21.4536 88.5183 21.1906L88.264 20.4477C87.9625 20.703 87.6686 20.9285 87.3825 21.1234C87.105 21.3183 86.8155 21.4834 86.5139 21.6187C86.2124 21.7464 85.8876 21.8434 85.5397 21.9115C85.1617 21.9828 84.7775 22.0167 84.3927 22.0128C83.8669 22.0128 83.3875 21.9447 82.9554 21.8102C82.5444 21.6868 82.1622 21.4841 81.8308 21.2136C81.5178 20.9376 81.2722 20.5948 81.1125 20.2111C80.9424 19.8136 80.8574 19.3557 80.8574 18.8374C80.8574 18.4102 80.969 17.9821 81.1941 17.554C81.4175 17.1268 81.8007 16.7404 82.3411 16.3949C82.8901 16.0417 83.6161 15.7532 84.5199 15.5277C85.4323 15.2953 86.5715 15.1643 87.9393 15.1336V14.5379C87.9393 13.8094 87.7812 13.2766 87.4642 12.9379C87.1471 12.5932 86.6909 12.4204 86.0964 12.4204C85.6557 12.4204 85.2888 12.4732 84.995 12.5779C84.7274 12.6647 84.4679 12.774 84.2192 12.9047C84.0027 13.017 83.7982 13.126 83.6049 13.2315C83.3956 13.3327 83.165 13.3829 82.9322 13.3779C82.7313 13.384 82.5333 13.3287 82.3652 13.2196C82.2201 13.1094 82.0944 12.9763 81.9931 12.8255L81.4253 11.8349ZM102.46 20.2272C102.46 20.4451 102.422 20.6587 102.344 20.8689C102.267 21.0715 102.167 21.2366 102.044 21.3643L96.6767 28.2323H103.951V30.5728H92.9798V29.2902C92.9798 29.1626 93.0142 29.0009 93.0838 28.8051C93.1611 28.6111 93.2651 28.4264 93.3965 28.2545L98.8091 21.3081H93.3158V18.966H102.46V20.2272ZM115.188 11.2613C115.188 11.4783 115.149 11.6928 115.072 11.903C115.006 12.0865 114.904 12.255 114.771 12.3983L109.405 19.2664H115.037V21.6068H105.707V20.3234C105.707 20.1957 105.742 20.0349 105.812 19.84C105.889 19.6443 105.992 19.4604 106.125 19.2885L111.537 12.3421H106.043V10H115.188V11.2613ZM63.0018 39.3711C63.3799 38.7106 63.8172 38.1889 64.3112 37.8068C64.806 37.4238 65.3851 37.2323 66.0501 37.2323C66.5913 37.2323 67.0312 37.3566 67.3714 37.6043L67.1627 39.9004C67.124 40.0511 67.0621 40.1557 66.9771 40.2153C66.8793 40.2734 66.7661 40.301 66.6523 40.2945C66.5295 40.2945 66.3516 40.28 66.1197 40.2494C65.905 40.2133 65.6878 40.1945 65.4701 40.1932C65.2023 40.1892 64.9357 40.2313 64.6823 40.3174C64.4623 40.3975 64.2583 40.5156 64.0801 40.6664C63.8928 40.8271 63.7289 41.0127 63.5929 41.2179C63.4431 41.4555 63.3113 41.7039 63.1986 41.9608V49.0647H60V37.4579H61.8893C62.214 37.4579 62.4374 37.514 62.5611 37.6264C62.6848 37.7387 62.7742 37.9345 62.8274 38.2119L63.0018 39.3711ZM75.7652 41.8928C75.7652 41.5702 75.7188 41.263 75.6261 40.9702C75.5448 40.6845 75.4024 40.4195 75.2085 40.1932C75.0094 39.9635 74.7595 39.7824 74.4782 39.6638C74.1853 39.5294 73.8339 39.4613 73.4241 39.4613C72.6594 39.4613 72.0598 39.6715 71.6276 40.0911C71.1946 40.5123 70.9128 41.1123 70.7814 41.8928H75.7652ZM70.735 43.7396C70.8355 44.8281 71.1525 45.6238 71.6852 46.126C72.2264 46.6289 72.9292 46.8808 73.7944 46.8808C74.2351 46.8808 74.614 46.8315 74.9301 46.7345C75.2549 46.6289 75.5376 46.5166 75.7764 46.3966C76.0238 46.2689 76.2438 46.1566 76.4379 46.0587C76.6381 45.954 76.8357 45.9013 77.0282 45.9013C77.2756 45.9013 77.4689 45.9915 77.6081 46.1711L78.5351 47.297C78.1949 47.68 77.8203 47.9991 77.4105 48.2545C77.0088 48.4982 76.5816 48.6979 76.1364 48.8502C75.7029 48.9917 75.2562 49.09 74.803 49.1438C74.3731 49.2022 73.9397 49.232 73.5057 49.2332C72.6706 49.2332 71.8905 49.1021 71.1637 48.84C70.4587 48.5781 69.8157 48.1754 69.2744 47.657C68.7418 47.1319 68.3208 46.4826 68.0115 45.7098C67.7022 44.9362 67.5476 44.04 67.5476 43.0187C67.5476 42.2306 67.679 41.4877 67.9419 40.7898C68.2003 40.1107 68.5945 39.4904 69.1009 38.966C69.6197 38.4368 70.2429 38.019 70.9317 37.7387C71.6508 37.4315 72.4618 37.2774 73.3657 37.2774C74.1303 37.2774 74.8348 37.3966 75.4757 37.6374C76.1002 37.8552 76.6695 38.2049 77.1442 38.6621C77.6275 39.1307 77.9996 39.6999 78.2335 40.3285C78.4964 40.9813 78.6279 41.7277 78.6279 42.5685C78.6307 42.7606 78.6192 42.9526 78.5935 43.143C78.5782 43.2692 78.5389 43.3913 78.4775 43.503C78.4277 43.5895 78.3499 43.6569 78.2567 43.6945C78.1401 43.7277 78.019 43.7429 77.8976 43.7396H70.735ZM83.5396 38.8085C83.774 38.5875 84.0216 38.3806 84.281 38.1889C84.5439 38.0017 84.818 37.84 85.1041 37.7047C85.405 37.5672 85.7198 37.4617 86.0431 37.3898C86.4047 37.3126 86.7738 37.2749 87.1437 37.2774C87.7932 37.2774 88.3688 37.3864 88.8706 37.6034C89.3558 37.809 89.7876 38.1209 90.1335 38.5157C90.4899 38.9209 90.755 39.3968 90.911 39.9115C91.0889 40.4519 91.1774 41.0451 91.1774 41.6902V49.0647H87.9899V41.6902C87.9899 41.0451 87.8353 40.5455 87.526 40.1932C87.2167 39.8332 86.7614 39.6528 86.1591 39.6528C85.7221 39.6502 85.2902 39.7462 84.8962 39.9336C84.4811 40.1357 84.1012 40.4021 83.7707 40.7226V49.0638H80.5721V37.457H82.543C82.9442 37.457 83.2114 37.6374 83.342 37.9974L83.5396 38.8085Z" fill="#212B36"/>
<path d="M100.744 40.4748C100.442 40.137 100.114 39.9012 99.7581 39.7659C99.4034 39.6295 99.0259 39.5608 98.6455 39.5633C98.2589 39.5633 97.9075 39.6348 97.5905 39.777C97.2626 39.9289 96.9795 40.1616 96.7683 40.4527C96.544 40.7531 96.3696 41.1395 96.2468 41.6119C96.1231 42.085 96.0612 42.6476 96.0612 43.3012C96.0612 43.9463 96.111 44.4944 96.2116 44.9446C96.3121 45.3957 96.4547 45.7591 96.6411 46.0365C96.8336 46.314 97.0655 46.5174 97.3362 46.6442C97.6059 46.765 97.9075 46.8246 98.24 46.8246C98.8036 46.8246 99.2753 46.7157 99.6541 46.4987C100.041 46.2808 100.403 45.9727 100.744 45.5753V40.4748ZM103.942 29.1353V49.0655H101.972C101.562 49.0655 101.299 48.885 101.183 48.525L100.917 47.5123C100.681 47.7639 100.425 47.9972 100.152 48.2101C99.8863 48.4221 99.599 48.6066 99.295 48.7608C98.9857 48.9114 98.6532 49.028 98.2984 49.1097C97.9179 49.1952 97.5287 49.2369 97.1386 49.234C96.5285 49.2409 95.9252 49.1059 95.3773 48.8399C94.8312 48.5669 94.3551 48.1739 93.9855 47.691C93.5998 47.1812 93.2982 46.5582 93.0826 45.8229C92.8661 45.0876 92.7578 44.2467 92.7578 43.3012C92.7578 42.4374 92.8781 41.6348 93.1169 40.8919C93.3644 40.1489 93.7123 39.5072 94.1599 38.9667C94.6017 38.4314 95.1554 37.9973 95.7828 37.6944C96.416 37.3863 97.1197 37.2323 97.892 37.2323C98.5415 37.2323 99.0862 37.3259 99.5261 37.514C99.9746 37.7012 100.38 37.9565 100.744 38.2799V29.1353H103.942ZM114.139 41.8927C114.139 41.5701 114.093 41.2629 114 40.9701C113.919 40.6844 113.776 40.4194 113.583 40.1931C113.383 39.9635 113.133 39.7823 112.852 39.6638C112.559 39.5293 112.208 39.4612 111.798 39.4612C111.033 39.4612 110.435 39.6714 110.002 40.091C109.569 40.5123 109.287 41.1123 109.155 41.8927H114.139ZM109.109 43.7395C109.209 44.828 109.527 45.6238 110.059 46.1259C110.6 46.6289 111.303 46.8808 112.168 46.8808C112.609 46.8808 112.988 46.8314 113.304 46.7344C113.629 46.6289 113.912 46.5165 114.15 46.3965C114.398 46.2689 114.618 46.1565 114.812 46.0587C115.012 45.954 115.209 45.9012 115.402 45.9012C115.65 45.9012 115.843 45.9914 115.982 46.171L116.909 47.297C116.583 47.668 116.204 47.9905 115.785 48.2544C115.383 48.4982 114.955 48.698 114.51 48.8501C114.077 48.9915 113.63 49.0898 113.178 49.1438C112.747 49.2021 112.313 49.232 111.879 49.2331C111.081 49.2394 110.289 49.1063 109.538 48.8399C108.833 48.578 108.19 48.1754 107.648 47.657C107.116 47.1319 106.695 46.4825 106.386 45.7097C106.076 44.9361 105.922 44.0399 105.922 43.0187C105.922 42.2306 106.053 41.4876 106.316 40.7897C106.574 40.1107 106.969 39.4903 107.475 38.9659C107.994 38.4367 108.617 38.019 109.306 37.7387C110.025 37.4314 110.836 37.2774 111.74 37.2774C112.504 37.2774 113.209 37.3965 113.85 37.6374C114.474 37.8552 115.044 38.2048 115.518 38.6621C116.002 39.1307 116.374 39.6999 116.608 40.3284C116.87 40.9812 117.002 41.7276 117.002 42.5684C117.005 42.7605 116.993 42.9525 116.968 43.1429C116.952 43.2691 116.913 43.3913 116.852 43.5029C116.802 43.5894 116.724 43.6569 116.631 43.6944C116.514 43.7277 116.393 43.7429 116.272 43.7395H109.109ZM121.622 39.371C122.001 38.7106 122.439 38.1889 122.933 37.8067C123.427 37.4238 124.006 37.2323 124.671 37.2323C125.212 37.2323 125.652 37.3565 125.992 37.6042L125.784 39.9004C125.745 40.051 125.684 40.1557 125.598 40.2153C125.501 40.2734 125.388 40.301 125.274 40.2944C125.15 40.2944 124.973 40.2799 124.741 40.2493C124.526 40.2133 124.309 40.1945 124.092 40.1931C123.824 40.1892 123.557 40.2312 123.304 40.3174C123.083 40.3974 122.879 40.5155 122.701 40.6663C122.513 40.827 122.349 41.0126 122.213 41.2178C122.064 41.4555 121.932 41.7038 121.82 41.9608V49.0646H118.621V37.4578H120.511C120.835 37.4578 121.059 37.514 121.182 37.6263C121.306 37.7387 121.395 37.9344 121.449 38.2118L121.622 39.371Z" fill="#212B36"/>
</svg>
