<svg width="186" height="60" viewBox="0 0 186 60" fill="none" xmlns="http://www.w3.org/2000/svg">
<path fill-rule="evenodd" clip-rule="evenodd" d="M32.8528 10L16 19.9995V40.0005L32.8528 50L49.7057 40.0005V19.9995L32.8528 10ZM20.1196 32.6848L20.0904 32.6699L19.9677 32.5993C18.9107 31.868 19.3373 29.321 20.9206 26.9153C22.4998 24.5245 24.6261 23.1623 25.6935 23.868C25.7039 23.8722 25.7039 23.8786 25.7122 23.8786C26.2844 24.27 26.4217 25.1959 26.1762 26.3443C26.1658 26.3999 26.1471 26.4598 26.1325 26.5197C26.1138 26.6052 26.0888 26.6907 26.0638 26.7763C25.991 27.0372 25.8974 27.3066 25.7892 27.5825C25.6623 27.9075 25.5062 28.239 25.3294 28.579C25.2857 28.6603 25.242 28.7437 25.1983 28.8249C25.061 29.0708 24.9153 29.3168 24.753 29.5606C23.2488 31.8573 21.2244 33.2002 20.1196 32.6848ZM26.1346 36.2924L21.4407 33.4697C22.7411 33.0847 24.2225 31.8102 25.4105 30.0075C26.0264 29.0708 26.482 28.1278 26.7546 27.2467C26.9647 26.571 27.0729 25.9294 27.0729 25.3563L27.0688 17.7477C30.0503 17.7477 32.4658 20.224 32.4617 23.2799V27.0136V29.0281C32.4617 30.1657 31.9249 31.7354 30.922 33.2537C29.6029 35.2638 27.8906 36.5405 26.7504 36.4806C26.5195 36.4742 26.3094 36.4143 26.1346 36.2924ZM32.4658 36.7244C32.4658 39.776 30.0503 42.2523 27.0729 42.2523H26.7504V37.2954H26.8191C28.2755 37.2954 30.1439 35.8861 31.5774 33.7028C31.9249 33.1767 32.2182 32.6442 32.4679 32.1096V36.7244H32.4658ZM33.2419 23.2884C33.2419 20.2261 35.6574 17.7498 38.6389 17.7498H38.9573V22.711H38.8887C37.4322 22.711 35.5638 24.1203 34.1303 26.3037C33.787 26.8297 33.4895 27.3622 33.2398 27.8968V23.2884H33.2419ZM38.6348 34.6394V42.2523C35.6575 42.2523 33.2419 39.776 33.2419 36.7244V30.9762C33.2419 30.9719 33.2419 30.9719 33.2419 30.9655C33.2419 29.8279 33.7787 28.2582 34.7816 26.7463C36.1069 24.7362 37.8129 23.4595 38.9573 23.5194C39.1861 23.5301 39.3963 23.59 39.569 23.7097L44.267 26.5261C42.9624 26.9174 41.4852 28.1855 40.2972 29.9882C39.6814 30.9206 39.2361 31.8637 38.9573 32.734C38.7471 33.4226 38.6348 34.0684 38.6348 34.6394ZM44.7809 33.0912C43.2059 35.482 41.0795 36.8399 40.0142 36.1385C40.0038 36.1385 39.9997 36.1278 39.9893 36.1278C39.4317 35.7364 39.286 34.8447 39.5107 33.7327C39.5295 33.6429 39.5502 33.5467 39.5794 33.4526C39.5939 33.3777 39.6127 33.3029 39.6376 33.2216C39.6668 33.1061 39.7063 32.9907 39.7458 32.8709C39.775 32.7811 39.8103 32.6806 39.8478 32.5801C39.8727 32.5202 39.8977 32.4539 39.9165 32.3897C39.956 32.2892 39.9996 32.1844 40.0433 32.0839C40.0933 31.9642 40.1515 31.8444 40.2098 31.7183C40.2202 31.7033 40.2244 31.684 40.239 31.6627C40.3035 31.5365 40.3659 31.4125 40.4304 31.2927C40.5094 31.1473 40.5926 31.0062 40.6738 30.8671C40.757 30.7217 40.8444 30.5763 40.938 30.4352C42.4485 28.1406 44.473 26.7955 45.5778 27.313L45.611 27.3323L45.7275 27.4028C46.797 28.1342 46.3663 30.6811 44.7809 33.0912Z" fill="#212B36"/>
<path d="M122.416 36.825C118.721 36.825 115.717 33.7371 115.717 29.9413C115.717 26.1455 118.721 23.0554 122.416 23.0554C126.111 23.0554 129.116 26.1434 129.116 29.9413C129.116 33.7392 126.111 36.825 122.416 36.825ZM122.416 26.5048C120.573 26.5048 119.073 28.0466 119.073 29.9413C119.073 31.836 120.573 33.3778 122.416 33.3778C124.26 33.3778 125.76 31.836 125.76 29.9413C125.76 28.0466 124.262 26.5048 122.416 26.5048Z" fill="#212B36"/>
<path d="M80.1367 19.7897C80.1367 18.7995 80.9169 17.9998 81.8782 17.9998H82.0072C82.9705 17.9998 83.7486 18.8017 83.7486 19.7897C83.7486 20.7798 82.9684 21.5795 82.0072 21.5795H81.8782C80.9169 21.5795 80.1367 20.7798 80.1367 19.7897ZM80.2657 36.568V23.3053H83.6217V36.568H80.2657Z" fill="#212B36"/>
<path d="M86.75 36.5679V23.3052H90.106V28.7155L94.779 23.3052H98.8819L93.9281 28.5829L99.142 36.5679H95.1951L91.6061 31.0528L90.1101 32.6182V36.5701H86.75V36.5679Z" fill="#212B36"/>
<path d="M129.564 36.5681L134.237 29.8832L129.696 23.3053H133.436L136.122 27.1781L138.831 23.3053H142.47L137.928 29.8041L142.601 36.5659H138.861L136.046 32.5093L133.208 36.5659H129.564V36.5681Z" fill="#212B36"/>
<path d="M144.455 19.7898C144.455 18.7997 145.235 17.9999 146.197 17.9999H146.326C147.289 17.9999 148.067 18.8018 148.067 19.7898C148.067 20.7799 147.287 21.5797 146.326 21.5797H146.197C145.235 21.5797 144.455 20.7799 144.455 19.7898ZM144.584 36.5682V23.3054H147.94V36.5682H144.584Z" fill="#212B36"/>
<path d="M77.1071 28.7758V36.5705H73.7511V28.7758C73.7511 27.5227 72.6671 26.5048 71.3356 26.5048C70.004 26.5048 68.92 27.5227 68.92 28.7758V36.5705H65.564V28.7758C65.564 27.5227 64.48 26.5048 63.1484 26.5048C61.8168 26.5048 60.7329 27.5227 60.7329 28.7758V36.5705H57.3789V28.7758C57.3789 25.6237 59.9672 23.0554 63.1484 23.0554C64.7463 23.0554 66.1965 23.7034 67.243 24.7469C68.2896 23.7055 69.7377 23.0554 71.3376 23.0554C74.5147 23.0554 77.1071 25.6237 77.1071 28.7758Z" fill="#212B36"/>
<path d="M170.871 28.7751V36.5698H167.515V28.7751C167.515 27.5219 166.431 26.504 165.099 26.504C163.768 26.504 162.684 27.5219 162.684 28.7751V36.5698H159.328V28.7751C159.328 27.5219 158.244 26.504 156.912 26.504C155.58 26.504 154.496 27.5219 154.496 28.7751V36.5698H151.143V28.7751C151.143 25.623 153.731 23.0547 156.912 23.0547C158.51 23.0547 159.96 23.7026 161.007 24.7462C162.053 23.7048 163.501 23.0547 165.101 23.0547C168.283 23.0547 170.871 25.623 170.871 28.7751Z" fill="#212B36"/>
<path d="M108.117 23.0576C105.714 23.0576 104.359 24.8069 104.359 24.8069L104.303 24.933V23.2458H100.947V41.7542H104.303V35.0672C105.009 35.7751 106.317 36.4637 108.077 36.4637C110.077 36.4637 114.427 34.8406 114.392 30.029C114.357 25.2111 110.52 23.0576 108.117 23.0576ZM107.724 33.4057C105.832 33.4057 104.301 31.8317 104.301 29.8879C104.301 27.9483 105.832 26.3744 107.724 26.3744C109.611 26.3744 111.142 27.9483 111.142 29.8879C111.144 31.8317 109.613 33.4057 107.724 33.4057Z" fill="#212B36"/>
</svg>
