<svg width="186" height="60" viewBox="0 0 186 60" fill="none" xmlns="http://www.w3.org/2000/svg">
<path d="M70.4393 12.4492H66V38.0522H76.0066V33.6027H70.4393V12.4492Z" fill="#212B36"/>
<path d="M85.7243 8H70.4414V12.4495H83.2499L88.3078 20.8015L83.2499 29.1535H76.0087V33.603H85.7243L93.5113 20.8015L85.7243 8Z" fill="#212B36"/>
<path d="M75.9719 42.9753C76.2994 42.9024 76.6269 42.8659 77.0272 42.8294C77.3911 42.793 77.7913 42.793 78.1552 42.793C78.5555 42.793 78.9557 42.8294 79.3196 42.9024C79.7199 42.9753 80.0838 43.0847 80.3749 43.3036C80.7023 43.4859 80.9571 43.7777 81.139 44.1059C81.3209 44.4342 81.4301 44.9083 81.4301 45.4554C81.4301 45.9295 81.3573 46.3672 81.1754 46.6954C80.9934 47.0237 80.7751 47.3154 80.484 47.5343C80.1929 47.7531 79.8654 47.9354 79.5015 48.0084C79.1377 48.1178 78.7738 48.1543 78.3735 48.1543H78.1916C78.1188 48.1543 78.0096 48.1543 77.9369 48.1543C77.8641 48.1543 77.7549 48.1543 77.6822 48.1543C77.6094 48.1543 77.5366 48.1543 77.5002 48.1178V50.8532H75.9355L75.9719 42.9753ZM78.3008 44.1059C78.1552 44.1059 78.0096 44.1059 77.8641 44.1059C77.7185 44.1059 77.6094 44.1424 77.5366 44.1424V46.6954C77.573 46.6954 77.6094 46.6954 77.6822 46.7319C77.7549 46.7319 77.7913 46.7319 77.8641 46.7319C77.9369 46.7319 78.0096 46.7319 78.046 46.7319C78.1188 46.7319 78.1552 46.7319 78.1916 46.7319C78.4099 46.7319 78.5919 46.6954 78.8102 46.6589C78.9921 46.6225 79.1741 46.5495 79.356 46.4401C79.5015 46.3307 79.6471 46.1848 79.7199 46.0025C79.829 45.8201 79.8654 45.6013 79.8654 45.273C79.8654 45.0177 79.829 44.8354 79.7199 44.653C79.6471 44.5071 79.5015 44.3612 79.356 44.2518C79.2104 44.1424 79.0285 44.0695 78.8466 44.033C78.6646 44.1424 78.4827 44.1059 78.3008 44.1059Z" fill="#212B36"/>
<path d="M81.9004 47.9731C81.9004 47.499 81.9732 47.0613 82.1187 46.6966C82.2643 46.3319 82.4826 46.0036 82.7373 45.7483C82.992 45.493 83.3195 45.3107 83.6834 45.1648C84.0473 45.0189 84.4475 44.9824 84.9206 44.9824C85.3936 44.9824 85.8303 45.0554 86.1941 45.2013C86.558 45.3471 86.8855 45.5295 87.1402 45.8213C87.3949 46.0766 87.5769 46.4048 87.7224 46.7695C87.868 47.1342 87.9044 47.5354 87.9044 48.0096C87.9044 48.4837 87.8316 48.9213 87.686 49.2861C87.5405 49.6508 87.3222 49.979 87.0675 50.2343C86.8127 50.4896 86.4852 50.672 86.1214 50.8179C85.7575 50.9637 85.3572 51.0002 84.8842 51.0002C84.4111 51.0002 83.9745 50.9273 83.6106 50.7814C83.2467 50.6355 82.9192 50.4531 82.6645 50.1614C82.4098 49.9061 82.2279 49.5778 82.0823 49.2131C81.9732 48.8484 81.9004 48.4107 81.9004 47.9731ZM83.4287 47.9731C83.4287 48.2284 83.4651 48.4472 83.5378 48.666C83.6106 48.8849 83.7198 49.0672 83.8289 49.2131C83.9745 49.359 84.12 49.5049 84.302 49.5778C84.4839 49.6508 84.7022 49.7237 84.9206 49.7237C85.3572 49.7237 85.7211 49.5778 85.9758 49.3225C86.2669 49.0308 86.3761 48.5931 86.3761 48.0096C86.3761 47.499 86.2305 47.0613 85.9758 46.7331C85.7211 46.4048 85.3572 46.2589 84.8842 46.2589C84.6659 46.2589 84.4839 46.2954 84.302 46.3683C84.12 46.4413 83.9745 46.5507 83.8289 46.6966C83.6834 46.8425 83.6106 47.0248 83.5015 47.2437C83.4651 47.426 83.4287 47.6813 83.4287 47.9731Z" fill="#212B36"/>
<path d="M92.09 46.5148L92.9633 48.9949H92.9997L93.1089 48.0101L93.5819 45.1654L94.8919 45.1289L93.7639 50.8185H92.272L91.6534 48.5572H91.5806L90.8892 50.8185H89.361L88.1602 45.1654H89.6157L90.1979 48.3019L90.2706 48.9949H90.3434L91.1803 46.5148H92.09Z" fill="#212B36"/>
<path d="M100.715 50.1978C100.605 50.2708 100.496 50.3802 100.351 50.4531C100.205 50.5261 100.023 50.6355 99.8048 50.7084C99.5865 50.7814 99.3682 50.8543 99.1135 50.8908C98.8588 50.9273 98.6041 50.9637 98.3129 50.9637C97.8399 50.9637 97.4033 50.8908 97.003 50.7449C96.6391 50.599 96.3116 50.4167 96.0205 50.1614C95.7658 49.9061 95.5475 49.5778 95.4019 49.2131C95.2564 48.8484 95.1836 48.4472 95.1836 47.9731C95.1836 47.4625 95.2564 47.0248 95.4383 46.6601C95.5839 46.2954 95.8022 45.9672 96.0933 45.7119C96.3844 45.4566 96.6755 45.2742 97.0758 45.1648C97.4396 45.0554 97.8399 44.9824 98.2766 44.9824C98.5677 44.9824 98.8588 45.0189 99.1499 45.0918C99.441 45.1648 99.7321 45.3107 99.9868 45.493C100.242 45.6754 100.46 45.9307 100.605 46.2225C100.751 46.5142 100.86 46.9154 100.86 47.3895C100.86 47.7178 100.824 48.0825 100.751 48.4472H96.6755C96.6755 48.7025 96.7483 48.8849 96.821 49.0672C96.9302 49.2496 97.0394 49.359 97.1849 49.4684C97.3305 49.5778 97.5124 49.6508 97.7307 49.6872C97.9127 49.7237 98.131 49.7602 98.3857 49.7602C98.8224 49.7602 99.2226 49.7237 99.5137 49.6143C99.8048 49.5049 100.023 49.3955 100.205 49.2131L100.715 50.1978ZM98.2766 46.1495C98.0946 46.1495 97.9127 46.186 97.7307 46.2225C97.5488 46.2589 97.4033 46.3683 97.2577 46.4413C97.1122 46.5507 97.003 46.6601 96.9302 46.8425C96.8574 46.9884 96.7847 47.1707 96.7847 47.3531H99.5501C99.5501 46.9884 99.441 46.6601 99.2226 46.4413C99.0043 46.2589 98.6768 46.1495 98.2766 46.1495Z" fill="#212B36"/>
<path d="M101.551 49.5414H102.934V46.3683H101.551V45.1283H104.098L104.28 45.8577H104.316C104.535 45.6024 104.753 45.3836 105.044 45.2377C105.299 45.0554 105.626 44.9824 105.99 44.9824C106.427 44.9824 106.791 45.1648 107.045 45.493C107.3 45.8213 107.446 46.3683 107.446 47.1707H106.136C106.136 46.9154 106.099 46.6966 106.026 46.5872C105.954 46.4778 105.808 46.4048 105.663 46.4048C105.371 46.4048 105.117 46.4778 104.935 46.6236C104.753 46.7695 104.607 46.9519 104.462 47.1342V49.5414H106.9V50.7814H101.587L101.551 49.5414Z" fill="#212B36"/>
<path d="M107.445 42.8672H109.847V47.3897H110.174L112.03 45.1284H113.74L111.484 47.7179L112.94 49.5415H113.995V50.7815H112.176L110.247 48.4473H109.847V50.7815L108.355 50.818V44.1072H107.445V42.8672Z" fill="#212B36"/>
<path d="M113.924 42.8672H116.216V45.7484H116.253C116.435 45.4931 116.689 45.3108 116.98 45.1649C117.272 45.019 117.635 44.9461 118.036 44.9461C118.327 44.9461 118.581 44.9825 118.836 45.0555C119.091 45.1284 119.273 45.2378 119.455 45.4202C119.637 45.6025 119.746 45.8214 119.855 46.1132C119.964 46.4049 120.001 46.7696 120.001 47.2073V50.745H118.545V47.5355C118.545 47.0614 118.436 46.7332 118.254 46.5508C118.072 46.332 117.817 46.259 117.49 46.259C117.199 46.259 116.944 46.332 116.726 46.5143C116.507 46.6967 116.325 46.9155 116.216 47.1708V50.7815H114.761V44.1072H113.96L113.924 42.8672Z" fill="#212B36"/>
</svg>
