<svg width="186" height="60" viewBox="0 0 186 60" fill="none" xmlns="http://www.w3.org/2000/svg">
<g clip-path="url(#clip0_2705_5740)">
<path d="M138.905 24.8867V35.9197C138.905 38.4022 136.893 40.4141 134.411 40.4141C131.928 40.4141 129.916 38.4022 129.916 35.9197V28.2631V24.8867H125.668V33.1235V35.6309C125.668 35.6907 125.663 35.7479 125.663 35.8077C125.663 40.6731 129.607 44.6196 134.475 44.6196C139.107 44.6196 142.904 41.0441 143.257 36.5024H143.287V24.8867H138.905Z" fill="#212B36"/>
<path d="M155.433 39.6123H155.301C155.324 39.6123 155.346 39.6148 155.368 39.6148C155.391 39.6148 155.411 39.6123 155.433 39.6123Z" fill="#212B36"/>
<path d="M166.952 29.0499H172.776H173.931H176.473V24.6327H166.952C163.61 24.6327 160.901 27.3418 160.901 30.6833C160.901 33.2206 162.462 35.3893 164.676 36.2882C164.676 36.2857 164.678 36.2832 164.678 36.2832C164.678 36.2857 164.678 36.2907 164.683 36.2932C165.099 36.4625 165.547 36.5496 165.996 36.5496H166.944C166.949 36.5496 166.952 36.5471 166.952 36.5422V36.5496H168.441H170.423C171.327 36.5496 172.056 37.2817 172.056 38.1831C172.056 39.0869 171.324 39.8165 170.423 39.8165H164.599H163.443H160.901V44.2312H170.423C173.197 44.2312 175.535 42.3637 176.247 39.8165C176.394 39.2961 176.471 38.7483 176.471 38.1831C176.471 35.6458 174.91 33.477 172.696 32.5782C172.694 32.5782 172.691 32.5757 172.689 32.5757C172.248 32.3964 171.775 32.3192 171.299 32.3192H170.42H168.931H166.949C166.045 32.3192 165.316 31.5871 165.316 30.6858C165.318 29.7794 166.05 29.0499 166.952 29.0499ZM166.952 33.243C166.952 33.238 166.947 33.2305 166.952 33.228V33.243Z" fill="#212B36"/>
<path d="M119.092 24.8866V26.3632C117.491 25.2726 115.557 24.6351 113.472 24.6351C107.95 24.6351 103.473 29.1121 103.473 34.6348C103.473 40.1575 107.95 44.6345 113.472 44.6345C115.557 44.6345 117.489 43.9971 119.092 42.9065V44.2336H123.472V24.8866H119.092ZM113.472 40.2522C110.455 40.2522 108.009 37.7373 108.009 34.6323C108.009 31.5298 110.455 29.0125 113.472 29.0125C116.49 29.0125 118.935 31.5273 118.935 34.6323C118.935 37.7348 116.49 40.2522 113.472 40.2522Z" fill="#212B36"/>
<path d="M92.4771 24.7795C90.8611 24.7795 89.3472 25.2178 88.045 25.9747V24.8841H83.6652V44.2311H88.045V41.2058V33.4795C88.045 30.997 90.0569 28.9851 92.5394 28.9851C95.0219 28.9851 97.0338 30.997 97.0338 33.4795V41.1336V44.2311H101.282V36.2757V33.7683C101.282 33.7085 101.287 33.6513 101.287 33.5915C101.289 28.7261 97.345 24.7795 92.4771 24.7795Z" fill="#212B36"/>
<path d="M71.4768 24.6327C69.4076 24.6327 67.4854 25.2627 65.8893 26.3383V16.1046H61.5095V33.8779C61.4921 34.1269 61.4771 34.3784 61.4771 34.6324C61.4771 34.8864 61.4896 35.1379 61.5095 35.3869V44.2312H65.8893V42.9265C67.4854 44.0021 69.4076 44.6321 71.4768 44.6321C76.9995 44.6321 81.4765 40.1551 81.4765 34.6324C81.4765 29.1097 76.9995 24.6327 71.4768 24.6327ZM71.4768 40.2522C68.459 40.2522 66.0138 37.7374 66.0138 34.6324C66.0138 31.5299 68.459 29.0126 71.4768 29.0126C74.4946 29.0126 76.9398 31.5299 76.9398 34.6324C76.9398 37.7349 74.4921 40.2522 71.4768 40.2522Z" fill="#212B36"/>
<path d="M59.1266 32.5857C58.2252 27.9892 54.1765 24.5232 49.3161 24.5232C43.7934 24.5232 39.3165 29.0001 39.3165 34.5229C39.3165 40.0456 43.7934 44.5226 49.3161 44.5226C53.1507 44.5226 56.4798 42.3613 58.158 39.1915H52.4485C51.5521 39.7941 50.474 40.1477 49.3137 40.1477C46.9084 40.1477 44.8566 38.6363 44.0574 36.5099H54.5725H56.3901H59.1191C59.2312 35.9571 59.2959 35.3894 59.3133 34.8092V34.239C59.2984 33.7211 59.2436 33.2132 59.154 32.7177C59.1415 32.6728 59.1341 32.628 59.1266 32.5857ZM44.01 32.6803C44.635 30.89 46.139 29.5131 48.0089 29.0674C48.0488 29.0574 48.0861 29.0499 48.1259 29.04C48.1658 29.03 48.2081 29.0226 48.248 29.0151C48.4472 28.9752 48.6488 28.9429 48.8555 28.9254C48.8729 28.923 48.8904 28.923 48.9078 28.9205C49.0398 28.9105 49.1742 28.903 49.3087 28.903C49.3112 28.903 49.3112 28.903 49.3137 28.903H49.3161C49.3211 28.903 49.3261 28.903 49.3336 28.903C49.4531 28.903 49.5701 28.908 49.6896 28.918C49.7295 28.9205 49.7718 28.923 49.8116 28.9279C49.9237 28.9379 50.0333 28.9503 50.1428 28.9678C50.1926 28.9752 50.2424 28.9852 50.2922 28.9952C50.3345 29.0026 50.3744 29.0126 50.4142 29.0201C50.4341 29.025 50.4541 29.0275 50.474 29.0325C50.479 29.0325 50.4814 29.035 50.4864 29.035C50.5014 29.0375 50.5163 29.0425 50.5312 29.045C52.4386 29.4683 53.9798 30.8601 54.6148 32.6778H44.01V32.6803Z" fill="#212B36"/>
<path d="M16.3889 43.9872H16.4337L16.3889 43.9324V43.9872Z" fill="#212B36"/>
<path d="M32.7305 43.9872H32.7754L32.7305 43.9324V43.9872Z" fill="#212B36"/>
<path d="M32.7156 35.5412L32.7181 37.1497L22.1781 24.8842L16.379 24.8866H16.374V35.5412L16.3765 37.1497L5.83647 24.8842L0.0373535 24.8866L10.9932 37.5257L15.5025 42.8816L15.5548 42.9438C15.7888 43.2177 16.0677 43.4468 16.3864 43.6211C16.5358 43.7033 16.6927 43.768 16.8545 43.8253C17.1508 43.9249 17.4696 43.9821 17.7982 43.9821C18.8963 43.9821 19.8525 43.3821 20.3629 42.4907C20.4351 42.3662 20.4949 42.2367 20.5496 42.0997C20.6791 41.7661 20.7538 41.4075 20.7538 41.0291C20.7538 40.5883 20.7538 40.185 20.7538 39.8837V29.9338L27.3348 37.5257L31.8441 42.8816L31.8964 42.9438C32.1304 43.2177 32.4093 43.4468 32.728 43.6211C32.8774 43.7033 33.0343 43.768 33.1962 43.8253C33.4925 43.9249 33.8112 43.9821 34.1398 43.9821C35.2379 43.9821 36.1941 43.3821 36.7045 42.4907C36.7767 42.3662 36.8365 42.2367 36.8913 42.0997C37.0207 41.7661 37.0954 41.4075 37.0954 41.0291C37.0954 40.5883 37.0954 40.185 37.0954 39.8837V24.8866H32.7156V35.5412Z" fill="#212B36"/>
<path d="M153.352 29.5056H158.713V24.8867H153.352V16.1046H148.972V24.8867H145.476V29.5056H148.972V37.6104C148.972 37.6104 148.972 37.6104 148.972 37.6079V37.6104C148.972 41.2034 151.835 44.1266 155.406 44.2262V44.2287H155.491C155.525 44.2287 155.558 44.2312 155.593 44.2312C155.62 44.2312 155.647 44.2287 155.675 44.2287H158.717V43.4494V43.1406V39.6148H155.438C155.416 39.6148 155.393 39.6173 155.371 39.6173C155.349 39.6173 155.326 39.6148 155.304 39.6148V39.6123C154.228 39.5775 153.364 38.696 153.364 37.6104H153.354V31.3805V29.5056H153.352Z" fill="#212B36"/>
</g>
<defs>
<clipPath id="clip0_2705_5740">
<rect width="186" height="28.6345" fill="white" transform="translate(0 16)"/>
</clipPath>
</defs>
</svg>
