<svg width="376" height="210" viewBox="0 0 376 210" fill="none" xmlns="http://www.w3.org/2000/svg">
<g clip-path="url(#clip0_1535_3097)">
<path d="M106.226 142.335C100.129 140.117 94.7498 135.824 91.2523 129.766C83.3569 116.091 88.0424 98.6042 101.718 90.7088L231.819 15.5949C239.436 11.1969 248.236 10.7026 255.902 13.4911C261.999 15.7086 267.378 20.0024 270.876 26.0602C278.771 39.7354 274.086 57.2218 260.41 65.1172L130.309 140.231C122.692 144.629 113.892 145.123 106.226 142.335Z" fill="#D9D9D9"/>
<path d="M63.8088 269.787C57.7123 267.569 52.3328 263.276 48.8353 257.218C40.94 243.543 45.6254 226.056 59.3006 218.161L231.37 118.817C238.987 114.419 247.787 113.924 255.453 116.713C261.55 118.93 266.929 123.224 270.427 129.282C278.322 142.957 273.637 160.444 259.962 168.339L87.8924 267.683C80.2749 272.081 71.475 272.575 63.8088 269.787Z" fill="#D9D9D9"/>
<path d="M103.394 348.778C97.297 346.561 91.9176 342.267 88.4201 336.209C80.5247 322.534 85.2102 305.048 98.8854 297.152L145.05 270.499C152.668 266.101 161.468 265.607 169.134 268.395C175.23 270.613 180.61 274.906 184.107 280.964C192.003 294.639 187.317 312.126 173.642 320.021L127.477 346.675C119.86 351.072 111.06 351.567 103.394 348.778Z" fill="#D9D9D9"/>
<path d="M281.12 176.04C294.795 168.145 299.48 150.658 291.585 136.983L270.426 129.282C278.321 142.957 273.636 160.443 259.961 168.339L281.12 176.04Z" fill="#D9D9D9"/>
<path d="M291.585 136.983C288.088 130.925 282.709 126.631 276.612 124.414L255.464 116.717C261.556 118.935 266.931 123.228 270.427 129.282L291.585 136.983Z" fill="#D9D9D9"/>
<path d="M276.612 124.414C268.945 121.625 260.145 122.12 252.528 126.518L231.369 118.817C238.987 114.419 247.787 113.924 255.453 116.713L276.612 124.414Z" fill="url(#paint0_linear_1535_3097)"/>
<path d="M281.569 72.8183C295.244 64.9229 299.93 47.4365 292.034 33.7613L270.875 26.0601C278.771 39.7353 274.085 57.2217 260.41 65.1171L281.569 72.8183Z" fill="#D9D9D9"/>
<path d="M292.035 33.761C288.537 27.7033 283.158 23.4095 277.061 21.1919L255.913 13.4947C262.005 15.7134 267.38 20.0056 270.876 26.0598L292.035 33.761Z" fill="#D9D9D9"/>
<path d="M109.051 275.384L281.121 176.04L259.962 168.339L87.8926 267.683L109.051 275.384Z" fill="#D9D9D9"/>
<path d="M277.059 21.192C269.393 18.4035 260.593 18.8979 252.975 23.2958L231.816 15.5946C239.434 11.1967 248.234 10.7023 255.9 13.4908L277.059 21.192Z" fill="url(#paint1_linear_1535_3097)"/>
<path d="M151.467 147.932L281.569 72.8184L260.41 65.1172L130.309 140.231L151.467 147.932Z" fill="#D9D9D9"/>
<path d="M252.527 126.518L80.4577 225.862L59.2988 218.161L231.368 118.817L252.527 126.518Z" fill="#E4E4E4"/>
<path d="M252.977 23.2959L122.876 98.4098L101.717 90.7086L231.818 15.5947L252.977 23.2959Z" fill="#E4E4E4"/>
<path d="M127.384 150.036C135.05 152.824 143.85 152.33 151.467 147.932L130.308 140.231C122.691 144.629 113.891 145.123 106.225 142.335L127.384 150.036Z" fill="#D9D9D9"/>
<path d="M112.411 137.467C115.906 143.521 121.281 147.813 127.373 150.032L106.225 142.335C100.129 140.117 94.7494 135.823 91.252 129.766L112.411 137.467Z" fill="url(#paint2_linear_1535_3097)"/>
<path d="M112.41 137.467C104.515 123.792 109.2 106.305 122.876 98.4097L101.717 90.7085C88.0414 98.6039 83.356 116.09 91.2514 129.766L112.41 137.467Z" fill="url(#paint3_linear_1535_3097)"/>
<rect x="98.1152" y="112.706" width="207.411" height="57.1835" rx="28.5917" transform="rotate(-30 98.1152 112.706)" fill="#F3F4F7"/>
<rect x="55.6992" y="240.158" width="255.872" height="57.1835" rx="28.5917" transform="rotate(-30 55.6992 240.158)" fill="#F3F4F7"/>
</g>
<defs>
<linearGradient id="paint0_linear_1535_3097" x1="252.27" y1="123.48" x2="260.484" y2="90.9832" gradientUnits="userSpaceOnUse">
<stop offset="" stop-color="#E4E4E4"/>
<stop offset="0.33176" stop-color="white"/>
</linearGradient>
<linearGradient id="paint1_linear_1535_3097" x1="252.717" y1="20.2584" x2="257.22" y2="-1.13258" gradientUnits="userSpaceOnUse">
<stop offset="" stop-color="#E4E4E4"/>
<stop offset="0.211303" stop-color="white"/>
<stop offset="0.839974" stop-color="#EEEEEF"/>
</linearGradient>
<linearGradient id="paint2_linear_1535_3097" x1="104.67" y1="136.22" x2="119.869" y2="154.796" gradientUnits="userSpaceOnUse">
<stop offset="" stop-color="#E4E4E4"/>
<stop offset="1" stop-color="white"/>
</linearGradient>
<linearGradient id="paint3_linear_1535_3097" x1="113.112" y1="91.1863" x2="107.483" y2="140.16" gradientUnits="userSpaceOnUse">
<stop offset="0.119056" stop-color="#E4E4E4" stop-opacity="0.99"/>
<stop offset="0.473957" stop-color="#F7F7F7"/>
<stop offset="0.75458" stop-color="#E4E4E4"/>
</linearGradient>
<clipPath id="clip0_1535_3097">
<rect width="376" height="210" fill="white"/>
</clipPath>
</defs>
</svg>
